<?xml version="1.0" encoding="UTF-8"?>
<svg version="1.1" xmlns="http://www.w3.org/2000/svg" width="128" height="128">
<path d="M0 0 C42.24 0 84.48 0 128 0 C128 42.24 128 84.48 128 128 C85.76 128 43.52 128 0 128 C0 85.76 0 43.52 0 0 Z " fill="#823600" transform="translate(0,0)"/>
<path d="M0 0 C1.63958132 2.86926731 2.80383968 5.92415918 4 9 C6.64 8.67 9.28 8.34 12 8 C12.0825 9.051875 12.165 10.10375 12.25 11.1875 C13.06667876 15.33895038 14.28919958 16.86563701 17 20 C17.36784131 21.3242287 17.71202981 22.65613912 18 24 C18.66 24.33 19.32 24.66 20 25 C19.34 25.66 18.68 26.32 18 27 C17.01 26.01 17.01 26.01 16 25 C12.90073181 25.32198966 12.90073181 25.32198966 10 26 C8.95785309 30.61507774 8.95785309 30.61507774 10 35 C11.89533342 35.46523063 11.89533342 35.46523063 14.0625 35.625 C16.0115625 35.810625 16.0115625 35.810625 18 36 C18.33 36.99 18.66 37.98 19 39 C20.11375 39.0928125 20.11375 39.0928125 21.25 39.1875 C24.8185739 40.24185138 25.92245228 41.99909773 28 45 C29.32 44.67 30.64 44.34 32 44 C32.66 41.36 33.32 38.72 34 36 C34.66 36 35.32 36 36 36 C36 62.4 36 88.8 36 116 C4.65 116 -26.7 116 -59 116 C-58.01 113.03 -57.02 110.06 -56 107 C-55.62770641 105.34160126 -55.2706431 103.67798725 -55 102 C-55.87591797 101.68675781 -55.87591797 101.68675781 -56.76953125 101.3671875 C-59.83504699 99.48814983 -60.93183171 97.24026391 -62.6875 94.125 C-63.28949219 93.07570313 -63.89148438 92.02640625 -64.51171875 90.9453125 C-66.82287314 86.3715319 -66.82287314 86.3715319 -67 84 C-66.00390625 81.859375 -66.00390625 81.859375 -64.5625 79.75 C-64.08941406 79.04359375 -63.61632812 78.3371875 -63.12890625 77.609375 C-62.57009766 76.81273438 -62.57009766 76.81273438 -62 76 C-61.4740625 76.9590625 -61.4740625 76.9590625 -60.9375 77.9375 C-58.22815794 80.82163832 -55.84141089 80.7100822 -52 81 C-51.67 81.99 -51.34 82.98 -51 84 C-49.72554546 83.57316368 -48.45554118 83.13302798 -47.1875 82.6875 C-46.47980469 82.44386719 -45.77210937 82.20023437 -45.04296875 81.94921875 C-42.92407476 81.11848154 -42.92407476 81.11848154 -41.48828125 79.39453125 C-40 78 -40 78 -36 78 C-36 80.31 -36 82.62 -36 85 C-41.94 85.495 -41.94 85.495 -48 86 C-47.67 87.98 -47.34 89.96 -47 92 C-46.0925 91.979375 -45.185 91.95875 -44.25 91.9375 C-41 93 -41 93 -39.8515625 95.03515625 C-39.20688965 96.66231052 -38.60657534 98.3078304 -38.0546875 99.96875 C-37.18454727 102.20175131 -37.18454727 102.20175131 -34.8828125 102.78125 C-34.26148438 102.8534375 -33.64015625 102.925625 -33 103 C-32.67 100.69 -32.34 98.38 -32 96 C-32.66 96 -33.32 96 -34 96 C-34 95.01 -34 94.02 -34 93 C-34.66 93 -35.32 93 -36 93 C-36.33 90.69 -36.66 88.38 -37 86 C-33.7 86 -30.4 86 -27 86 C-26.505 93.425 -26.505 93.425 -26 101 C-25.01 100.67 -24.02 100.34 -23 100 C-23 99.34 -23 98.68 -23 98 C-22.01 98 -21.02 98 -20 98 C-19.505 101.465 -19.505 101.465 -19 105 C-17.55903414 104.57405412 -16.12231288 104.13373367 -14.6875 103.6875 C-13.88699219 103.44386719 -13.08648437 103.20023437 -12.26171875 102.94921875 C-9.90035427 101.95817977 -8.66120007 100.91925057 -7 99 C-5.35 99.66 -3.7 100.32 -2 101 C-2 101.66 -2 102.32 -2 103 C-0.576875 102.7215625 -0.576875 102.7215625 0.875 102.4375 C4 102 4 102 6 103 C6 102.34 6 101.68 6 101 C7.98 100.67 9.96 100.34 12 100 C12 95.38 12 90.76 12 86 C11.34 86 10.68 86 10 86 C8.4921875 84.3203125 8.4921875 84.3203125 6.875 82.125 C6.33617188 81.40570313 5.79734375 80.68640625 5.2421875 79.9453125 C4 78 4 78 4 76 C-0.91582077 74.48046291 -0.91582077 74.48046291 -6 74 C-6.226875 73.0925 -6.45375 72.185 -6.6875 71.25 C-8.18850702 67.5332207 -9.83121983 66.33489065 -13 64 C-13 63.34 -13 62.68 -13 62 C-13.66 62 -14.32 62 -15 62 C-14.979375 60.865625 -14.95875 59.73125 -14.9375 58.5625 C-14.58422523 55.18424326 -14.58422523 55.18424326 -16 54 C-17.093125 53.855625 -18.18625 53.71125 -19.3125 53.5625 C-22.44101199 53.08526936 -24.34101141 52.59539315 -27 51 C-27 49.02 -27 47.04 -27 45 C-25.865625 44.54625 -24.73125 44.0925 -23.5625 43.625 C-19.95278308 42.42904194 -19.95278308 42.42904194 -19 40 C-10.76557056 40.32419014 -3.70210288 42.11003121 4 45 C4.63565235 42.60907004 4.63565235 42.60907004 5 40 C3.65154031 37.5651419 3.65154031 37.5651419 1 36 C-1.66028253 35.4741302 -4.2959463 35.2659725 -7 35 C-7.33 34.34 -7.66 33.68 -8 33 C-4.61725734 31.87241911 -3.23221777 32.18249738 0.1875 32.9375 C1.08855469 33.13214844 1.98960938 33.32679687 2.91796875 33.52734375 C3.94857422 33.76130859 3.94857422 33.76130859 5 34 C5 33.01 5 32.02 5 31 C4.34 30.67 3.68 30.34 3 30 C4.375 28.5 4.375 28.5 6 27 C6.66 27 7.32 27 8 27 C7.67 25.35 7.34 23.7 7 22 C3.7 21.67 0.4 21.34 -3 21 C-3 22.32 -3 23.64 -3 25 C-3.66 25 -4.32 25 -5 25 C-4.67 23.02 -4.34 21.04 -4 19 C-4.66 18.67 -5.32 18.34 -6 18 C-5.34 16.68 -4.68 15.36 -4 14 C-5.32 13.67 -6.64 13.34 -8 13 C-3.5 9 -3.5 9 1 9 C0.01 7.515 0.01 7.515 -1 6 C-1.804375 5.855625 -2.60875 5.71125 -3.4375 5.5625 C-6 5 -6 5 -7.8125 2.9375 C-8.4003125 1.9784375 -8.4003125 1.9784375 -9 1 C-2.25 -1.125 -2.25 -1.125 0 0 Z " fill="#7F3600" transform="translate(92,12)"/>
<path d="M0 0 C0.680625 -0.00515625 1.36125 -0.0103125 2.0625 -0.015625 C4 0.25 4 0.25 7 2.25 C7 2.91 7 3.57 7 4.25 C8.65 4.25 10.3 4.25 12 4.25 C12.99 6.23 12.99 6.23 14 8.25 C12.865625 8.724375 11.73125 9.19875 10.5625 9.6875 C7.24259834 10.88622083 7.24259834 10.88622083 6 12.25 C6.99 12.58 7.98 12.91 9 13.25 C8.7215625 14.0853125 8.7215625 14.0853125 8.4375 14.9375 C7.92466328 17.64820835 8.43659697 19.57383562 9 22.25 C8.67 22.91 8.34 23.57 8 24.25 C8.66 24.25 9.32 24.25 10 24.25 C10 22.93 10 21.61 10 20.25 C11.64574566 20.22311849 13.29161413 20.20365877 14.9375 20.1875 C15.85402344 20.17589844 16.77054687 20.16429688 17.71484375 20.15234375 C20 20.25 20 20.25 21 21.25 C21.04063832 22.91617115 21.042721 24.58388095 21 26.25 C20.34 26.25 19.68 26.25 19 26.25 C18.67 28.56 18.34 30.87 18 33.25 C17.21753906 33.16621094 16.43507813 33.08242188 15.62890625 32.99609375 C14.61699219 32.89425781 13.60507813 32.79242188 12.5625 32.6875 C11.55316406 32.58308594 10.54382813 32.47867188 9.50390625 32.37109375 C8.26447266 32.31115234 8.26447266 32.31115234 7 32.25 C6.67 32.58 6.34 32.91 6 33.25 C6.68707031 33.34796875 7.37414062 33.4459375 8.08203125 33.546875 C8.98308594 33.69640625 9.88414063 33.8459375 10.8125 34 C11.70582031 34.13921875 12.59914063 34.2784375 13.51953125 34.421875 C16.54697099 35.43261079 17.4626838 36.49005313 19 39.25 C18.8125 41.9375 18.8125 41.9375 18 44.25 C16 45.25 16 45.25 13.78515625 44.54296875 C12.88667969 44.17816406 11.98820312 43.81335937 11.0625 43.4375 C5.44693399 41.29080876 -0.06567162 40.12235775 -6 39.25 C-6.26554687 39.89453125 -6.53109375 40.5390625 -6.8046875 41.203125 C-7.19914062 41.87859375 -7.59359375 42.5540625 -8 43.25 C-11.125 44 -11.125 44 -14 44.25 C-13.89830839 47.19727535 -13.89830839 47.19727535 -13 50.25 C-9.00187606 52.91541596 -4.63094598 52.40698122 0 52.25 C-0.66 55.22 -1.32 58.19 -2 61.25 C-1.34 61.25 -0.68 61.25 0 61.25 C0 61.91 0 62.57 0 63.25 C1.485 63.745 1.485 63.745 3 64.25 C3 64.91 3 65.57 3 66.25 C3.639375 66.476875 4.27875 66.70375 4.9375 66.9375 C7 68.25 7 68.25 7.75 70.875 C7.8325 71.65875 7.915 72.4425 8 73.25 C8.556875 73.023125 9.11375 72.79625 9.6875 72.5625 C12 72.25 12 72.25 14.375 73.1875 C17.95828842 76.0029409 20.60683254 79.37652277 23 83.25 C23 83.91 23 84.57 23 85.25 C23.66 85.25 24.32 85.25 25 85.25 C25.19532961 87.0199868 25.38098882 88.79104279 25.5625 90.5625 C25.71912109 92.04169922 25.71912109 92.04169922 25.87890625 93.55078125 C26 96.25 26 96.25 25 99.25 C23.02 99.58 21.04 99.91 19 100.25 C19 100.91 19 101.57 19 102.25 C16.36 102.25 13.72 102.25 11 102.25 C11 101.59 11 100.93 11 100.25 C9.35 99.59 7.7 98.93 6 98.25 C5.505 99.735 5.505 99.735 5 101.25 C1.22022332 103.56940842 -1.56084956 104.64168975 -6 104.25 C-6.495 100.785 -6.495 100.785 -7 97.25 C-7.99 97.25 -8.98 97.25 -10 97.25 C-10 97.91 -10 98.57 -10 99.25 C-11.32 100.24 -12.64 101.23 -14 102.25 C-14 96.64 -14 91.03 -14 85.25 C-17.3 85.25 -20.6 85.25 -24 85.25 C-23.505 88.715 -23.505 88.715 -23 92.25 C-22.34 92.25 -21.68 92.25 -21 92.25 C-21 93.24 -21 94.23 -21 95.25 C-20.34 95.25 -19.68 95.25 -19 95.25 C-19.33 97.56 -19.66 99.87 -20 102.25 C-20.99 102.58 -21.98 102.91 -23 103.25 C-26.2910841 99.64042389 -27.54663921 97.12362847 -28 92.25 C-30.97 91.755 -30.97 91.755 -34 91.25 C-34.33 89.27 -34.66 87.29 -35 85.25 C-32.11788698 84.28929566 -30.30149956 84.14418117 -27.3125 84.1875 C-26.50425781 84.19652344 -25.69601563 84.20554687 -24.86328125 84.21484375 C-24.24839844 84.22644531 -23.63351563 84.23804687 -23 84.25 C-23 81.94 -23 79.63 -23 77.25 C-25.94091587 77.43415432 -25.94091587 77.43415432 -29 78.25 C-29.309375 78.91 -29.61875 79.57 -29.9375 80.25 C-30.4634375 81.24 -30.4634375 81.24 -31 82.25 C-34.4375 83.1875 -34.4375 83.1875 -38 83.25 C-39.625 81.8125 -39.625 81.8125 -41 80.25 C-43.62570704 79.99930087 -43.62570704 79.99930087 -46 80.25 C-46.66 78.6 -47.32 76.95 -48 75.25 C-47 74.25 -47 74.25 -44.3828125 74.22265625 C-42.21606837 74.28241058 -40.04939783 74.34489766 -37.8828125 74.41015625 C-34.80039062 74.48359375 -34.80039062 74.48359375 -32 72.25 C-30.989375 72.12625 -29.97875 72.0025 -28.9375 71.875 C-27.4834375 71.565625 -27.4834375 71.565625 -26 71.25 C-25.67 70.59 -25.34 69.93 -25 69.25 C-24.67 68.59 -24.34 67.93 -24 67.25 C-20.875 66.5 -20.875 66.5 -18 66.25 C-18.33 65.59 -18.66 64.93 -19 64.25 C-22.34252724 64.17572162 -24.8035914 64.18453047 -28 65.25 C-28 65.91 -28 66.57 -28 67.25 C-34.0546875 68.2265625 -34.0546875 68.2265625 -36 68.25 C-39.72423726 64.52576274 -39.11287315 59.27382927 -39.25 54.25 C-39.17702516 46.87041907 -36.73377768 42.79994625 -32 37.25 C-32.556875 37.70375 -33.11375 38.1575 -33.6875 38.625 C-36.66070863 40.71428174 -39.28554807 42.30357662 -43 42.1875 C-45.92637519 40.81576163 -47.75748683 38.548576 -50 36.25 C-52.16620544 34.95480005 -52.16620544 34.95480005 -54 34.25 C-54.4021875 35.425625 -54.4021875 35.425625 -54.8125 36.625 C-56 39.25 -56 39.25 -59 41.25 C-61.3125 41.8125 -61.3125 41.8125 -64 41.25 C-66.52857106 39.23429949 -68.39177234 37.05492231 -70 34.25 C-70.375 30.3125 -70.375 30.3125 -70 27.25 C-69.01 26.92 -68.02 26.59 -67 26.25 C-67.66 24.27 -68.32 22.29 -69 20.25 C-66.24662027 17.49662027 -64.5278476 17.91849205 -60.6875 17.875 C-59.55699219 17.84664062 -58.42648438 17.81828125 -57.26171875 17.7890625 C-53.38312511 18.33717513 -51.83709329 19.62882708 -49 22.25 C-48.34 22.58 -47.68 22.91 -47 23.25 C-47 22.26 -47 21.27 -47 20.25 C-46.03578125 20.18941406 -45.0715625 20.12882812 -44.078125 20.06640625 C-42.81484375 19.98261719 -41.5515625 19.89882813 -40.25 19.8125 C-38.99703125 19.73128906 -37.7440625 19.65007813 -36.453125 19.56640625 C-33.17450997 19.38133568 -33.17450997 19.38133568 -30.8125 18.59375 C-28.25741591 18.10916509 -26.99458822 18.95297648 -24.75 20.1875 C-24.04359375 20.56777344 -23.3371875 20.94804688 -22.609375 21.33984375 C-22.07828125 21.64019531 -21.5471875 21.94054687 -21 22.25 C-21 22.91 -21 23.57 -21 24.25 C-19.68 24.58 -18.36 24.91 -17 25.25 C-17 20.96 -17 16.67 -17 12.25 C-14.69 12.25 -12.38 12.25 -10 12.25 C-9.505 14.23 -9.505 14.23 -9 16.25 C-8.34 16.25 -7.68 16.25 -7 16.25 C-7 14.93 -7 13.61 -7 12.25 C-3.05272412 12.07057837 -0.4019487 12.15649311 3 14.25 C3.33 13.59 3.66 12.93 4 12.25 C1.36 11.92 -1.28 11.59 -4 11.25 C-4.99 8.28 -5.98 5.31 -7 2.25 C-4.00261059 0.25174039 -3.36652492 -0.02550398 0 0 Z " fill="#944506" transform="translate(79,12.75)"/>
<path d="M0 0 C0.350625 0.639375 0.70125 1.27875 1.0625 1.9375 C3.77184206 4.82163832 6.15858911 4.7100822 10 5 C10.33 5.99 10.66 6.98 11 8 C12.27445454 7.57316368 13.54445882 7.13302798 14.8125 6.6875 C15.52019531 6.44386719 16.22789063 6.20023437 16.95703125 5.94921875 C19.07592524 5.11848154 19.07592524 5.11848154 20.51171875 3.39453125 C22 2 22 2 26 2 C26 4.31 26 6.62 26 9 C20.06 9.495 20.06 9.495 14 10 C14.33 11.98 14.66 13.96 15 16 C15.9075 15.979375 16.815 15.95875 17.75 15.9375 C21 17 21 17 22.1484375 19.03515625 C22.79311035 20.66231052 23.39342466 22.3078304 23.9453125 23.96875 C24.81545273 26.20175131 24.81545273 26.20175131 27.1171875 26.78125 C27.73851562 26.8534375 28.35984375 26.925625 29 27 C29.33 24.69 29.66 22.38 30 20 C29.34 20 28.68 20 28 20 C28 19.01 28 18.02 28 17 C27.34 17 26.68 17 26 17 C25.67 14.69 25.34 12.38 25 10 C28.3 10 31.6 10 35 10 C35.495 17.425 35.495 17.425 36 25 C36.99 24.67 37.98 24.34 39 24 C39 23.34 39 22.68 39 22 C39.99 22 40.98 22 42 22 C42.495 25.465 42.495 25.465 43 29 C44.44096586 28.57405412 45.87768712 28.13373367 47.3125 27.6875 C48.51326172 27.32205078 48.51326172 27.32205078 49.73828125 26.94921875 C52.09964573 25.95817977 53.33879993 24.91925057 55 23 C57.475 23.99 57.475 23.99 60 25 C60 25.66 60 26.32 60 27 C60.94875 26.814375 61.8975 26.62875 62.875 26.4375 C66 26 66 26 68 27 C68 26.34 68 25.68 68 25 C69.98 24.67 71.96 24.34 74 24 C74.495 22.515 74.495 22.515 75 21 C75 21.66 75 22.32 75 23 C77.73827963 21.38924728 80.2578605 19.79488369 82.75 17.8125 C86.9473481 15.47167125 90.2927088 15.45305759 95 16 C96.485 16.495 96.485 16.495 98 17 C98 24.59 98 32.18 98 40 C66.65 40 35.3 40 3 40 C3.99 37.03 4.98 34.06 6 31 C6.37229359 29.34160126 6.7293569 27.67798725 7 26 C6.41605469 25.79117188 5.83210938 25.58234375 5.23046875 25.3671875 C2.16495301 23.48814983 1.06816829 21.24026391 -0.6875 18.125 C-1.28949219 17.07570313 -1.89148438 16.02640625 -2.51171875 14.9453125 C-4.82287314 10.3715319 -4.82287314 10.3715319 -5 8 C-4.00390625 5.859375 -4.00390625 5.859375 -2.5625 3.75 C-2.08941406 3.04359375 -1.61632812 2.3371875 -1.12890625 1.609375 C-0.75636719 1.07828125 -0.38382813 0.5471875 0 0 Z " fill="#8E3C02" transform="translate(30,88)"/>
<path d="M0 0 C0.625 1.8125 0.625 1.8125 1 4 C0.01 5.485 0.01 5.485 -1 7 C-2.65 7 -4.3 7 -6 7 C-6 10.96 -6 14.92 -6 19 C-4.68 19.66 -3.36 20.32 -2 21 C-1.67 21.99 -1.34 22.98 -1 24 C0.65 24.33 2.3 24.66 4 25 C4.2475 25.94875 4.495 26.8975 4.75 27.875 C5.67135298 31.05269468 5.67135298 31.05269468 7.9375 32.25 C8.618125 32.4975 9.29875 32.745 10 33 C10.99 33.66 11.98 34.32 13 35 C13 35.66 13 36.32 13 37 C13.66 37 14.32 37 15 37 C15 38.98 15 40.96 15 43 C14.34 43 13.68 43 13 43 C13 43.66 13 44.32 13 45 C13.66 45 14.32 45 15 45 C16.32 42.69 17.64 40.38 19 38 C25.05343979 40.01781326 28.27884658 43.94986321 32 49 C32 49.66 32 50.32 32 51 C32.66 51 33.32 51 34 51 C34.19532961 52.7699868 34.38098882 54.54104279 34.5625 56.3125 C34.66691406 57.29863281 34.77132812 58.28476563 34.87890625 59.30078125 C35 62 35 62 34 65 C31.03 65.495 31.03 65.495 28 66 C28 66.66 28 67.32 28 68 C25.36 68 22.72 68 20 68 C20 67.34 20 66.68 20 66 C18.35 65.34 16.7 64.68 15 64 C14.505 65.485 14.505 65.485 14 67 C10.22022332 69.31940842 7.43915044 70.39168975 3 70 C2.34 67.03 1.68 64.06 1 61 C2.4540625 60.071875 2.4540625 60.071875 3.9375 59.125 C7.02835362 57.34321154 7.02835362 57.34321154 8 55 C8.66 55 9.32 55 10 55 C10 54.34 10 53.68 10 53 C10.66 53 11.32 53 12 53 C12 52.34 12 51.68 12 51 C11.401875 50.731875 10.80375 50.46375 10.1875 50.1875 C8.02775192 49.01506533 6.64209744 47.80630718 5 46 C5 47.32 5 48.64 5 50 C1.7 50 -1.6 50 -5 50 C-5.36637589 43.64948454 -5.36637589 43.64948454 -3.625 40.5625 C-2 39 -2 39 0 39 C0 38.01 0 37.02 0 36 C-1.32 35.67 -2.64 35.34 -4 35 C-4 34.34 -4 33.68 -4 33 C-4.66 33 -5.32 33 -6 33 C-6 31.02 -6 29.04 -6 27 C-6.99 27 -7.98 27 -9 27 C-9 25.35 -9 23.7 -9 22 C-12.3 21.34 -15.6 20.68 -19 20 C-19.66 23.3 -20.32 26.6 -21 30 C-22.99954746 30.04254356 -25.00041636 30.04080783 -27 30 C-28 29 -28 29 -28.25 26.125 C-28.12504415 18.54955151 -25.91527228 10.80895815 -21 5 C-18.32655486 3.21770324 -17.26229641 3 -14 3 C-14 2.34 -14 1.68 -14 1 C-9.23692563 0.04738513 -4.8333472 -0.08333357 0 0 Z " fill="#A1592D" transform="translate(70,47)"/>
<path d="M0 0 C2 2 2 2 2.25 4.9375 C2 8 2 8 0 11 C-2.625 11.6875 -2.625 11.6875 -5 12 C-4.89830839 14.94727535 -4.89830839 14.94727535 -4 18 C-0.00187606 20.66541596 4.36905402 20.15698122 9 20 C8.34 22.97 7.68 25.94 7 29 C7.66 29 8.32 29 9 29 C9 29.66 9 30.32 9 31 C9.99 31.33 10.98 31.66 12 32 C12 32.66 12 33.32 12 34 C12.928125 34.2784375 12.928125 34.2784375 13.875 34.5625 C16 36 16 36 17.4375 39.3125 C18 43 18 43 16.625 45.9375 C16.08875 46.618125 15.5525 47.29875 15 48 C14.01 47.67 13.02 47.34 12 47 C12.495 46.01 12.495 46.01 13 45 C13.66 45 14.32 45 15 45 C15 43.02 15 41.04 15 39 C14.34 39 13.68 39 13 39 C11.29006566 37.3777546 9.62652316 35.70586575 8 34 C7.443125 33.484375 6.88625 32.96875 6.3125 32.4375 C5 31 5 31 4.0625 28.875 C3.711875 28.25625 3.36125 27.6375 3 27 C2.401875 26.855625 1.80375 26.71125 1.1875 26.5625 C-2.41151539 25.6370389 -3.779441 23.9407403 -6 21 C-6.91469816 17.0425304 -7.86602827 12.73205654 -6 9 C-3.4375 8.375 -3.4375 8.375 -1 8 C-0.67 6.35 -0.34 4.7 0 3 C-4.62 3 -9.24 3 -14 3 C-14 3.66 -14 4.32 -14 5 C-15.2375 5.433125 -16.475 5.86625 -17.75 6.3125 C-21.78756717 8.29197983 -22.93187623 10.30776133 -24.4375 14.5 C-24.99570522 16.32230223 -25.51990797 18.15557865 -26 20 C-26.1959375 20.69609375 -26.391875 21.3921875 -26.59375 22.109375 C-27.22867578 25.06422189 -27.05786257 27.99114632 -27 31 C-25.02 31.33 -23.04 31.66 -21 32 C-20.34 28.7 -19.68 25.4 -19 22 C-11.25 22.875 -11.25 22.875 -9 24 C-9 25.65 -9 27.3 -9 29 C-8.01 29 -7.02 29 -6 29 C-6 30.98 -6 32.96 -6 35 C-5.34 35 -4.68 35 -4 35 C-3.67 35.66 -3.34 36.32 -3 37 C-2.01 37.33 -1.02 37.66 0 38 C0 38.99 0 39.98 0 41 C-0.66 41 -1.32 41 -2 41 C-4.12046792 44.53411321 -4.53199289 47.94393835 -5 52 C-1.7 52 1.6 52 5 52 C5 50.68 5 49.36 5 48 C8 49 8 49 9 51 C11.52733235 51.65555119 11.52733235 51.65555119 14 52 C13.01 52.495 13.01 52.495 12 53 C12 53.66 12 54.32 12 55 C11.34 55 10.68 55 10 55 C10 55.66 10 56.32 10 57 C9.34 57 8.68 57 8 57 C7.7525 57.61875 7.505 58.2375 7.25 58.875 C5.77753937 61.37818306 4.58971163 61.83045281 2 63 C1.67 63.66 1.34 64.32 1 65 C0.34 65 -0.32 65 -1 65 C-1 65.66 -1 66.32 -1 67 C-2.32 67.99 -3.64 68.98 -5 70 C-5 64.39 -5 58.78 -5 53 C-8.3 53 -11.6 53 -15 53 C-14.67 55.31 -14.34 57.62 -14 60 C-13.34 60 -12.68 60 -12 60 C-12 60.99 -12 61.98 -12 63 C-11.34 63 -10.68 63 -10 63 C-10.33 65.31 -10.66 67.62 -11 70 C-12.485 70.495 -12.485 70.495 -14 71 C-17.2910841 67.39042389 -18.54663921 64.87362847 -19 60 C-20.98 59.67 -22.96 59.34 -25 59 C-25.33 57.02 -25.66 55.04 -26 53 C-23.11788698 52.03929566 -21.30149956 51.89418117 -18.3125 51.9375 C-17.10013672 51.95103516 -17.10013672 51.95103516 -15.86328125 51.96484375 C-15.24839844 51.97644531 -14.63351563 51.98804688 -14 52 C-14 49.69 -14 47.38 -14 45 C-16.94091587 45.18415432 -16.94091587 45.18415432 -20 46 C-20.309375 46.66 -20.61875 47.32 -20.9375 48 C-21.288125 48.66 -21.63875 49.32 -22 50 C-25.4375 50.9375 -25.4375 50.9375 -29 51 C-30.625 49.5625 -30.625 49.5625 -32 48 C-34.62570704 47.74930087 -34.62570704 47.74930087 -37 48 C-37.66 46.35 -38.32 44.7 -39 43 C-38 42 -38 42 -35.3828125 41.97265625 C-33.21606837 42.03241058 -31.04939783 42.09489766 -28.8828125 42.16015625 C-25.80039062 42.23359375 -25.80039062 42.23359375 -23 40 C-21.989375 39.87625 -20.97875 39.7525 -19.9375 39.625 C-18.968125 39.41875 -17.99875 39.2125 -17 39 C-16.67 38.34 -16.34 37.68 -16 37 C-15.67 36.34 -15.34 35.68 -15 35 C-11.875 34.25 -11.875 34.25 -9 34 C-9.33 33.34 -9.66 32.68 -10 32 C-13.34252724 31.92572162 -15.8035914 31.93453047 -19 33 C-19 33.66 -19 34.32 -19 35 C-25.0546875 35.9765625 -25.0546875 35.9765625 -27 36 C-30.72423726 32.27576274 -30.11287315 27.02382927 -30.25 22 C-30.17276424 15.04878204 -28.15373488 10.60932134 -23.484375 5.390625 C-16.82280423 -0.85021498 -8.77746552 -0.99063259 0 0 Z " fill="#98420C" transform="translate(70,45)"/>
<path d="M0 0 C3.3 0 6.6 0 10 0 C10 15.84 10 31.68 10 48 C9.34 48 8.68 48 8 48 C7.87625 49.27875 7.7525 50.5575 7.625 51.875 C7.25 55.75 7.25 55.75 5 58 C0.76931416 57.85411428 -1.17332595 54.82667405 -4 52 C-6.17346568 51.13880866 -6.17346568 51.13880866 -8 51 C-8 50.01 -8 49.02 -8 48 C-10.01822917 48.09765625 -12.03645833 48.1953125 -14.0546875 48.29296875 C-14.69664063 48.19628906 -15.33859375 48.09960938 -16 48 C-18 45 -18 45 -17.8125 41.4375 C-17 38 -17 38 -14 36 C-12.32345271 36.27942455 -10.65391846 36.60828247 -9 37 C-8.505 36.505 -8.505 36.505 -8 36 C-8.33773437 35.48050781 -8.67546875 34.96101563 -9.0234375 34.42578125 C-15.26919242 24.66001994 -15.26919242 24.66001994 -14.625 20.6875 C-14.41875 20.130625 -14.2125 19.57375 -14 19 C-12.68 19 -11.36 19 -10 19 C-10.33 17.35 -10.66 15.7 -11 14 C-10.01 14.33 -9.02 14.66 -8 15 C-7.67 16.65 -7.34 18.3 -7 20 C-4.81416116 21.04097782 -4.81416116 21.04097782 -2 21 C0.35575162 19.30628631 2.27981706 17.33495622 4 15 C4 14.34 4 13.68 4 13 C-0.30322683 11.53060547 -4.62297367 10.22556737 -9 9 C-9 8.34 -9 7.68 -9 7 C-8.34 7 -7.68 7 -7 7 C-8.15173355 4.53199953 -9.04783565 2.95216435 -11 1 C-9.35 1 -7.7 1 -6 1 C-5.71125 1.804375 -5.4225 2.60875 -5.125 3.4375 C-4.26737432 6.1326468 -4.26737432 6.1326468 -2 7 C-2.04125 6.21625 -2.0825 5.4325 -2.125 4.625 C-2 2 -2 2 0 0 Z " fill="#793300" transform="translate(118,0)"/>
<path d="M0 0 C0.350625 0.639375 0.70125 1.27875 1.0625 1.9375 C3.77184206 4.82163832 6.15858911 4.7100822 10 5 C10.33 5.99 10.66 6.98 11 8 C12.27445454 7.57316368 13.54445882 7.13302798 14.8125 6.6875 C15.52019531 6.44386719 16.22789063 6.20023437 16.95703125 5.94921875 C19.07592524 5.11848154 19.07592524 5.11848154 20.51171875 3.39453125 C22 2 22 2 26 2 C26 4.31 26 6.62 26 9 C20.06 9.495 20.06 9.495 14 10 C14.33 11.98 14.66 13.96 15 16 C15.9075 15.979375 16.815 15.95875 17.75 15.9375 C21 17 21 17 22.1484375 19.03515625 C22.79311035 20.66231052 23.39342466 22.3078304 23.9453125 23.96875 C24.81545273 26.20175131 24.81545273 26.20175131 27.1171875 26.78125 C27.73851562 26.8534375 28.35984375 26.925625 29 27 C29.33 24.69 29.66 22.38 30 20 C29.34 20 28.68 20 28 20 C28 19.01 28 18.02 28 17 C27.34 17 26.68 17 26 17 C25.67 14.69 25.34 12.38 25 10 C28.3 10 31.6 10 35 10 C35.495 17.425 35.495 17.425 36 25 C36.99 24.67 37.98 24.34 39 24 C39 23.34 39 22.68 39 22 C39.99 22 40.98 22 42 22 C42.495 24.97 42.495 24.97 43 28 C42.13375 27.690625 42.13375 27.690625 41.25 27.375 C38.48032433 26.91338739 37.35438733 27.57055055 35 29 C35 29.66 35 30.32 35 31 C32.6739143 31.38063221 30.33944736 31.71269945 28 32 C27.67 31.67 27.34 31.34 27 31 C25.41612938 31.00586619 23.83232408 31.05477852 22.25 31.125 C18.00194153 31.16146402 15.27913483 30.9617992 12 28 C11.25 26.0625 11.25 26.0625 11 24 C10.814375 23.2575 10.62875 22.515 10.4375 21.75 C10.293125 21.1725 10.14875 20.595 10 20 C9.67 21.32 9.34 22.64 9 24 C6.23828125 24.359375 6.23828125 24.359375 3 24 C0.91796875 21.515625 0.91796875 21.515625 -0.8125 18.25 C-1.39644531 17.18265625 -1.98039062 16.1153125 -2.58203125 15.015625 C-4.82167504 10.25252581 -4.82167504 10.25252581 -5 8 C-4.00390625 5.859375 -4.00390625 5.859375 -2.5625 3.75 C-2.08941406 3.04359375 -1.61632812 2.3371875 -1.12890625 1.609375 C-0.75636719 1.07828125 -0.38382813 0.5471875 0 0 Z " fill="#700E35" transform="translate(30,88)"/>
<path d="M0 0 C6.05343979 2.01781326 9.27884658 5.94986321 13 11 C13 11.66 13 12.32 13 13 C13.66 13 14.32 13 15 13 C15.19532961 14.7699868 15.38098882 16.54104279 15.5625 18.3125 C15.71912109 19.79169922 15.71912109 19.79169922 15.87890625 21.30078125 C16 24 16 24 15 27 C13.02 27.33 11.04 27.66 9 28 C9 28.66 9 29.32 9 30 C6.36 30 3.72 30 1 30 C1 29.34 1 28.68 1 28 C-0.65 27.34 -2.3 26.68 -4 26 C-4.33 26.99 -4.66 27.98 -5 29 C-8.77977668 31.31940842 -11.56084956 32.39168975 -16 32 C-16.66 29.03 -17.32 26.06 -18 23 C-17.030625 22.38125 -16.06125 21.7625 -15.0625 21.125 C-11.97164638 19.34321154 -11.97164638 19.34321154 -11 17 C-10.34 17 -9.68 17 -9 17 C-9 16.34 -9 15.68 -9 15 C-8.34 15 -7.68 15 -7 15 C-7 14.34 -7 13.68 -7 13 C-6.34 13 -5.68 13 -5 13 C-6.32 11.35 -7.64 9.7 -9 8 C-8.2575 7.979375 -7.515 7.95875 -6.75 7.9375 C-3.57208751 6.85412074 -3.27248768 6.25525588 -1.6875 3.4375 C-1.130625 2.303125 -0.57375 1.16875 0 0 Z " fill="#0659CF" transform="translate(89,85)"/>
<path d="M0 0 C11.55 0 23.1 0 35 0 C34.34 2.31 33.68 4.62 33 7 C32.01 6.67 31.02 6.34 30 6 C29.67 4.35 29.34 2.7 29 1 C28.01 1.33 27.02 1.66 26 2 C26.66 3.65 27.32 5.3 28 7 C27.34 7 26.68 7 26 7 C26 7.66 26 8.32 26 9 C27.423125 8.938125 27.423125 8.938125 28.875 8.875 C32 9 32 9 34 11 C35.98356483 11.71408334 37.98315437 12.38617742 40 13 C38.4169423 17.2742558 35.49431596 19.26531794 32 22 C30.125 21.3125 30.125 21.3125 28 20 C27.27840576 18.35636866 26.60648579 16.68949614 26 15 C25.34 14.67 24.68 14.34 24 14 C24.33 15.65 24.66 17.3 25 19 C20.88134787 20.56901033 17.41108904 21.68616941 13 21 C11.25 18.625 11.25 18.625 10 16 C9.34 15.34 8.68 14.68 8 14 C7.67 13.34 7.34 12.68 7 12 C6.01 12.33 5.02 12.66 4 13 C2.68 12.01 1.36 11.02 0 10 C0 6.7 0 3.4 0 0 Z " fill="#893900" transform="translate(83,0)"/>
<path d="M0 0 C2.97 0 5.94 0 9 0 C9 2.31 9 4.62 9 7 C12.3 7 15.6 7 19 7 C19 5.68 19 4.36 19 3 C22 4 22 4 23 6 C25.52733235 6.65555119 25.52733235 6.65555119 28 7 C27.34 7.33 26.68 7.66 26 8 C26 8.66 26 9.32 26 10 C25.34 10 24.68 10 24 10 C24 10.66 24 11.32 24 12 C23.34 12 22.68 12 22 12 C21.7525 12.61875 21.505 13.2375 21.25 13.875 C19.77753937 16.37818306 18.58971163 16.83045281 16 18 C15.67 18.66 15.34 19.32 15 20 C14.34 20 13.68 20 13 20 C13 20.66 13 21.32 13 22 C11.68 22.99 10.36 23.98 9 25 C9 19.39 9 13.78 9 8 C5.7 8 2.4 8 -1 8 C-0.67 10.31 -0.34 12.62 0 15 C0.66 15 1.32 15 2 15 C2 15.99 2 16.98 2 18 C2.66 18 3.32 18 4 18 C3.67 20.31 3.34 22.62 3 25 C2.01 25.33 1.02 25.66 0 26 C-3.2910841 22.39042389 -4.54663921 19.87362847 -5 15 C-7.97 14.505 -7.97 14.505 -11 14 C-11.33 12.02 -11.66 10.04 -12 8 C-9.11788698 7.03929566 -7.30149956 6.89418117 -4.3125 6.9375 C-3.10013672 6.95103516 -3.10013672 6.95103516 -1.86328125 6.96484375 C-0.94095703 6.98224609 -0.94095703 6.98224609 0 7 C0 4.69 0 2.38 0 0 Z " fill="#9A6122" transform="translate(56,90)"/>
<path d="M0 0 C7.19682734 0.05597532 10.98384154 2.54484078 15.9375 7.5625 C15.6075 8.8825 15.2775 10.2025 14.9375 11.5625 C13.2875 11.8925 11.6375 12.2225 9.9375 12.5625 C9.9375 13.5525 9.9375 14.5425 9.9375 15.5625 C11.9175 14.9025 13.8975 14.2425 15.9375 13.5625 C15.9375 14.5525 15.9375 15.5425 15.9375 16.5625 C10.3125 17.6875 10.3125 17.6875 6.9375 16.5625 C6.669375 17.34625 6.40125 18.13 6.125 18.9375 C4.9375 21.5625 4.9375 21.5625 1.9375 23.5625 C-0.375 24.125 -0.375 24.125 -3.0625 23.5625 C-5.59107106 21.54679949 -7.45427234 19.36742231 -9.0625 16.5625 C-9.4375 12.625 -9.4375 12.625 -9.0625 9.5625 C-8.0725 9.2325 -7.0825 8.9025 -6.0625 8.5625 C-6.7225 6.5825 -7.3825 4.6025 -8.0625 2.5625 C-5.3651273 -0.1348727 -3.77124648 0.13673525 0 0 Z " fill="#AB4B03" transform="translate(18.0625,30.4375)"/>
<path d="M0 0 C0.66 0 1.32 0 2 0 C2 4.95 2 9.9 2 15 C1.34 15 0.68 15 0 15 C-0.12375 16.27875 -0.2475 17.5575 -0.375 18.875 C-0.75 22.75 -0.75 22.75 -3 25 C-7.23068584 24.85411428 -9.17332595 21.82667405 -12 19 C-14.17346568 18.13880866 -14.17346568 18.13880866 -16 18 C-16 17.01 -16 16.02 -16 15 C-18.01822917 15.09765625 -20.03645833 15.1953125 -22.0546875 15.29296875 C-22.69664063 15.19628906 -23.33859375 15.09960938 -24 15 C-26 12 -26 12 -25.8125 8.4375 C-25 5 -25 5 -22 3 C-19.75 3.25 -19.75 3.25 -17 4 C-15.1746875 4.433125 -15.1746875 4.433125 -13.3125 4.875 C-10 6 -10 6 -8 9 C-7.01 9.33 -6.02 9.66 -5 10 C-5.495 9.4225 -5.99 8.845 -6.5 8.25 C-8 6 -8 6 -8 2 C-6.865625 1.855625 -5.73125 1.71125 -4.5625 1.5625 C-1.19222799 1.38828522 -1.19222799 1.38828522 0 0 Z " fill="#A54700" transform="translate(126,33)"/>
<path d="M0 0 C2 2 2 2 2.25 4.9375 C2 8 2 8 0 11 C-2.625 11.6875 -2.625 11.6875 -5 12 C-4.89830839 14.94727535 -4.89830839 14.94727535 -4 18 C-0.00187606 20.66541596 4.36905402 20.15698122 9 20 C8.34 22.97 7.68 25.94 7 29 C7.66 29 8.32 29 9 29 C9 29.66 9 30.32 9 31 C9.99 31.33 10.98 31.66 12 32 C12 32.66 12 33.32 12 34 C12.928125 34.2784375 12.928125 34.2784375 13.875 34.5625 C16 36 16 36 17.4375 39.3125 C18 43 18 43 16.625 45.9375 C16.08875 46.618125 15.5525 47.29875 15 48 C14.01 47.67 13.02 47.34 12 47 C12.495 46.01 12.495 46.01 13 45 C13.66 45 14.32 45 15 45 C15 43.02 15 41.04 15 39 C14.34 39 13.68 39 13 39 C11.29006566 37.3777546 9.62652316 35.70586575 8 34 C7.443125 33.484375 6.88625 32.96875 6.3125 32.4375 C5 31 5 31 4.0625 28.875 C3.711875 28.25625 3.36125 27.6375 3 27 C2.401875 26.855625 1.80375 26.71125 1.1875 26.5625 C-2.41151539 25.6370389 -3.779441 23.9407403 -6 21 C-6.91469816 17.0425304 -7.86602827 12.73205654 -6 9 C-3.4375 8.375 -3.4375 8.375 -1 8 C-0.67 6.35 -0.34 4.7 0 3 C-4.62 3 -9.24 3 -14 3 C-14 3.66 -14 4.32 -14 5 C-15.2375 5.433125 -16.475 5.86625 -17.75 6.3125 C-21.78756717 8.29197983 -22.93187623 10.30776133 -24.4375 14.5 C-24.99570522 16.32230223 -25.51990797 18.15557865 -26 20 C-26.1959375 20.69609375 -26.391875 21.3921875 -26.59375 22.109375 C-27.22867578 25.06422189 -27.05786257 27.99114632 -27 31 C-25.02 31.33 -23.04 31.66 -21 32 C-20.34 28.7 -19.68 25.4 -19 22 C-11.25 22.875 -11.25 22.875 -9 24 C-9.33 25.32 -9.66 26.64 -10 28 C-10.33 27.01 -10.66 26.02 -11 25 C-13.31 24.67 -15.62 24.34 -18 24 C-18.144375 25.11375 -18.28875 26.2275 -18.4375 27.375 C-19 31 -19 31 -20 33 C-22.06640625 33.4140625 -22.06640625 33.4140625 -24.5625 33.625 C-25.38878906 33.69976562 -26.21507812 33.77453125 -27.06640625 33.8515625 C-27.70449219 33.90054688 -28.34257813 33.94953125 -29 34 C-30.53292333 27.10184502 -31.1776266 19.34693877 -28.8125 12.625 C-21.06268694 1.4011328 -13.94071158 -1.57336115 0 0 Z " fill="#925528" transform="translate(70,45)"/>
<path d="M0 0 C2.5 1.0625 2.5 1.0625 4 2 C4 2.66 4 3.32 4 4 C5.32 4.33 6.64 4.66 8 5 C8.6875 6.625 8.6875 6.625 9 9 C7.6875 11.9375 7.6875 11.9375 6 15 C5.31471955 16.65910004 4.64108137 18.32332564 4 20 C1.03 20 -1.94 20 -5 20 C-5.33 18.35 -5.66 16.7 -6 15 C-6.66 15 -7.32 15 -8 15 C-8.433125 13.948125 -8.86625 12.89625 -9.3125 11.8125 C-10.63870541 8.70539018 -12.1832976 5.85481805 -14 3 C-8.92160336 -1.18967722 -6.42314226 -1.45038696 0 0 Z " fill="#A44500" transform="translate(29,108)"/>
<path d="M0 0 C4.38249366 1.33909529 6.57949251 3.08994944 9 7 C8.875 9.0625 8.875 9.0625 8 11 C7.7525 11.70125 7.505 12.4025 7.25 13.125 C5.54693474 15.67959789 3.90295637 16.15035423 1 17 C0.01 17 -0.98 17 -2 17 C-2 16.01 -2 15.02 -2 14 C-2.75925781 14.02320313 -3.51851562 14.04640625 -4.30078125 14.0703125 C-5.29464844 14.08835937 -6.28851563 14.10640625 -7.3125 14.125 C-8.79169922 14.15980469 -8.79169922 14.15980469 -10.30078125 14.1953125 C-13 14 -13 14 -16 12 C-17.1875 8.875 -17.1875 8.875 -18 6 C-15.32521756 4.3372974 -13.0004856 3.00016187 -10 2 C-9.67 2.66 -9.34 3.32 -9 4 C-5.56769552 3.73606499 -5.56769552 3.73606499 -2 3 C-1.34 2.01 -0.68 1.02 0 0 Z " fill="#A44500" transform="translate(24,49)"/>
<path d="M0 0 C1.98 0 3.96 0 6 0 C6.33 1.32 6.66 2.64 7 4 C7.66 4 8.32 4 9 4 C9 2.68 9 1.36 9 0 C10.99954746 -0.04254356 13.00041636 -0.04080783 15 0 C16 1 16 1 16.11352539 2.76586914 C16.10828857 3.51473389 16.10305176 4.26359863 16.09765625 5.03515625 C16.09443359 5.84404297 16.09121094 6.65292969 16.08789062 7.48632812 C16.07951172 8.33646484 16.07113281 9.18660156 16.0625 10.0625 C16.05798828 10.91650391 16.05347656 11.77050781 16.04882812 12.65039062 C16.03700373 14.76695663 16.01906769 16.88348685 16 19 C14.68 19 13.36 19 12 19 C11.34 18.34 10.68 17.68 10 17 C9.01 17.2475 9.01 17.2475 8 17.5 C7.01 17.7475 7.01 17.7475 6 18 C5.34 17.34 4.68 16.68 4 16 C3.34 16.99 2.68 17.98 2 19 C1.01 19 0.02 19 -1 19 C-0.67 12.73 -0.34 6.46 0 0 Z " fill="#B86C08" transform="translate(63,25)"/>
<path d="M0 0 C2 1 2 1 3.1875 3.9375 C4 7 4 7 3 9 C7.25370265 11.26864141 10.9178359 11.10574615 15.59765625 10.875 C18.22579192 11.01174852 19.75437756 11.67233408 22 13 C21 16 21 16 18 18 C16.68 18 15.36 18 14 18 C14 18.99 14 19.98 14 21 C7.4 21 0.8 21 -6 21 C-5.01 18.03 -4.02 15.06 -3 12 C-1.91514544 8.37541225 -1.91514544 8.37541225 -3 5 C-2.01 5 -1.02 5 0 5 C0 3.35 0 1.7 0 0 Z " fill="#7F3401" transform="translate(39,107)"/>
<path d="M0 0 C2.18585126 6.42897428 2.29212664 10.20900646 -0.5625 16.375 C-1.036875 17.24125 -1.51125 18.1075 -2 19 C-2.66 19 -3.32 19 -4 19 C-4.33 19.99 -4.66 20.98 -5 22 C-8.77977668 24.31940842 -11.56084956 25.39168975 -16 25 C-16.66 22.03 -17.32 19.06 -18 16 C-17.030625 15.38125 -16.06125 14.7625 -15.0625 14.125 C-11.97164638 12.34321154 -11.97164638 12.34321154 -11 10 C-10.34 10 -9.68 10 -9 10 C-9 9.34 -9 8.68 -9 8 C-8.34 8 -7.68 8 -7 8 C-7 7.34 -7 6.68 -7 6 C-6.34 6 -5.68 6 -5 6 C-6.32 4.35 -7.64 2.7 -9 1 C-5.846632 0.29925156 -3.27275026 0 0 0 Z " fill="#336275" transform="translate(89,92)"/>
<path d="M0 0 C0.33 1.32 0.66 2.64 1 4 C-2.2811302 6.18742014 -4.33084356 6.54442806 -8.1875 7.125 C-9.27417969 7.29257812 -10.36085938 7.46015625 -11.48046875 7.6328125 C-12.31191406 7.75398438 -13.14335938 7.87515625 -14 8 C-14 8.99 -14 9.98 -14 11 C-15.98 11.33 -17.96 11.66 -20 12 C-20.66 17.61 -21.32 23.22 -22 29 C-23.65 29.33 -25.3 29.66 -27 30 C-28 29 -28 29 -28.25 26.125 C-28.12504415 18.54955151 -25.91527228 10.80895815 -21 5 C-18.32655486 3.21770324 -17.26229641 3 -14 3 C-14 2.34 -14 1.68 -14 1 C-9.23692563 0.04738513 -4.8333472 -0.08333357 0 0 Z " fill="#90F2EB" transform="translate(70,47)"/>
<path d="M0 0 C3.3 0 6.6 0 10 0 C10.33 4.95 10.66 9.9 11 15 C11.99 14.67 12.98 14.34 14 14 C14 13.34 14 12.68 14 12 C14.99 12 15.98 12 17 12 C17.33 13.98 17.66 15.96 18 18 C17.13375 17.690625 17.13375 17.690625 16.25 17.375 C13.48032433 16.91338739 12.35438733 17.57055055 10 19 C10 19.66 10 20.32 10 21 C7.6739143 21.38063221 5.33944736 21.71269945 3 22 C2.67 21.67 2.34 21.34 2 21 C0.31391034 20.92794489 -1.37500659 20.91613932 -3.0625 20.9375 C-3.98160156 20.94652344 -4.90070312 20.95554687 -5.84765625 20.96484375 C-6.55792969 20.97644531 -7.26820312 20.98804687 -8 21 C-7.71572583 19.41532272 -7.42225182 17.8322943 -7.125 16.25 C-6.96257813 15.36828125 -6.80015625 14.4865625 -6.6328125 13.578125 C-6.03203736 11.13052256 -5.22002883 9.19400143 -4 7 C-3.75765625 7.63808594 -3.5153125 8.27617188 -3.265625 8.93359375 C-2.93046875 9.75988281 -2.5953125 10.58617188 -2.25 11.4375 C-1.92515625 12.26121094 -1.6003125 13.08492187 -1.265625 13.93359375 C-0.18068448 16.1849879 -0.18068448 16.1849879 2.140625 16.78515625 C2.75421875 16.85605469 3.3678125 16.92695312 4 17 C4.33 14.69 4.66 12.38 5 10 C4.34 10 3.68 10 3 10 C3 9.01 3 8.02 3 7 C2.34 7 1.68 7 1 7 C0.67 4.69 0.34 2.38 0 0 Z " fill="#A83017" transform="translate(55,98)"/>
<path d="M0 0 C1.32 0 2.64 0 4 0 C4 1.65 4 3.3 4 5 C4.66 5 5.32 5 6 5 C6 3.68 6 2.36 6 1 C7.64574566 0.97311849 9.29161413 0.95365877 10.9375 0.9375 C11.85402344 0.92589844 12.77054688 0.91429687 13.71484375 0.90234375 C16 1 16 1 17 2 C17.04063832 3.66617115 17.042721 5.33388095 17 7 C16.34 7 15.68 7 15 7 C14.67 9.31 14.34 11.62 14 14 C12.4372038 13.85737588 10.87477304 13.71074489 9.3125 13.5625 C8.44238281 13.48128906 7.57226562 13.40007813 6.67578125 13.31640625 C4.07710729 13.0091178 1.55755267 12.54837616 -1 12 C-1.02687279 10.18757948 -1.04633715 8.37504767 -1.0625 6.5625 C-1.07410156 5.55316406 -1.08570312 4.54382812 -1.09765625 3.50390625 C-1 1 -1 1 0 0 Z " fill="#B76406" transform="translate(83,32)"/>
<path d="M0 0 C1.36125 0.37125 1.36125 0.37125 2.75 0.75 C3.925625 1.018125 5.10125 1.28625 6.3125 1.5625 C9.87201462 2.79215051 11.49467351 3.77296903 13.75 6.75 C13.75 7.74 13.75 8.73 13.75 9.75 C12.43 9.75 11.11 9.75 9.75 9.75 C9.09 11.73 8.43 13.71 7.75 15.75 C6.43 15.42 5.11 15.09 3.75 14.75 C3.75 13.76 3.75 12.77 3.75 11.75 C1.73177083 11.84765625 -0.28645833 11.9453125 -2.3046875 12.04296875 C-2.94664063 11.94628906 -3.58859375 11.84960938 -4.25 11.75 C-6.25 8.75 -6.25 8.75 -6.0625 5.1875 C-5.15540618 1.34979539 -4.23785587 -0.47087287 0 0 Z " fill="#A84F06" transform="translate(106.25,36.25)"/>
<path d="M0 0 C1.92495768 0.20371485 3.84151828 0.48898907 5.75 0.8125 C6.79671875 0.98394531 7.8434375 1.15539062 8.921875 1.33203125 C11.82535828 1.96210186 14.33343235 2.69323719 17 4 C17.8125 6.125 17.8125 6.125 18 8 C16.3603125 8.37125 16.3603125 8.37125 14.6875 8.75 C10.82438828 10.0595294 9.8470907 10.5002492 8 14 C7.27648573 15.98014432 6.59734611 17.97821315 6 20 C3.52210191 17.80509306 2.45024622 16.01161971 1.4375 12.875 C0.79579349 10.78521731 0.79579349 10.78521731 0 9 C-0.66 8.67 -1.32 8.34 -2 8 C-1.125 1.125 -1.125 1.125 0 0 Z " fill="#AC4800" transform="translate(7,64)"/>
<path d="M0 0 C0.680625 -0.00515625 1.36125 -0.0103125 2.0625 -0.015625 C4 0.25 4 0.25 7 2.25 C7 2.91 7 3.57 7 4.25 C8.65 4.25 10.3 4.25 12 4.25 C12.66 5.57 13.32 6.89 14 8.25 C12.865625 8.724375 11.73125 9.19875 10.5625 9.6875 C7.24259834 10.88622083 7.24259834 10.88622083 6 12.25 C6.99 12.58 7.98 12.91 9 13.25 C8.67 14.57 8.34 15.89 8 17.25 C6.68 17.25 5.36 17.25 4 17.25 C4 15.6 4 13.95 4 12.25 C1.36 11.92 -1.28 11.59 -4 11.25 C-4.99 8.28 -5.98 5.31 -7 2.25 C-4.00261059 0.25174039 -3.36652492 -0.02550398 0 0 Z " fill="#AD4800" transform="translate(79,12.75)"/>
<path d="M0 0 C-0.33 0.66 -0.66 1.32 -1 2 C0.03060547 2.14695313 0.03060547 2.14695313 1.08203125 2.296875 C1.98308594 2.44640625 2.88414063 2.5959375 3.8125 2.75 C5.15248047 2.95882812 5.15248047 2.95882812 6.51953125 3.171875 C9.54697099 4.18261079 10.4626838 5.24005313 12 8 C11.8125 10.6875 11.8125 10.6875 11 13 C9 14 9 14 6.75 13.29296875 C5.8425 12.92816406 4.935 12.56335937 4 12.1875 C-1.27400104 10.17404386 -6.43929872 8.91673166 -12 8 C-9.57446809 2.4212766 -9.57446809 2.4212766 -7.125 0.625 C-4.66203741 -0.09940076 -2.55422575 -0.14190143 0 0 Z " fill="#973F00" transform="translate(86,44)"/>
<path d="M0 0 C1.75 1.1875 1.75 1.1875 3.75 4.1875 C4.719375 4.496875 5.68875 4.80625 6.6875 5.125 C9.75 6.1875 9.75 6.1875 11.6875 7.8125 C13.32615262 11.47537056 12.46656647 14.27895561 11.75 18.1875 C11.42 18.1875 11.09 18.1875 10.75 18.1875 C10.75 16.5375 10.75 14.8875 10.75 13.1875 C9.88375 13.0328125 9.88375 13.0328125 9 12.875 C6.75 12.1875 6.75 12.1875 4.9375 10.625 C2.72471934 8.87602426 2.72471934 8.87602426 -0.5625 9.25 C-5.41297897 9.16778849 -7.33491414 8.00636182 -11.25 5.1875 C-12.1875 2.9375 -12.1875 2.9375 -12.25 1.1875 C-8.22600533 -1.28880441 -4.45901608 -1.61020025 0 0 Z " fill="#A44500" transform="translate(60.25,10.8125)"/>
<path d="M0 0 C-0.33 0.33 -0.66 0.66 -1 1 C-2.65 1 -4.3 1 -6 1 C-6 4.3 -6 7.6 -6 11 C-7.32 10.67 -8.64 10.34 -10 10 C-10.33 11.65 -10.66 13.3 -11 15 C-13.64 14.67 -16.28 14.34 -19 14 C-19.66 17.3 -20.32 20.6 -21 24 C-21.66 23.67 -22.32 23.34 -23 23 C-22.6315466 20.2021506 -22.23193528 17.41525393 -21.8125 14.625 C-21.71130859 13.8309375 -21.61011719 13.036875 -21.50585938 12.21875 C-21.16231793 10.02751265 -20.81516537 8.06416256 -20 6 C-17.44921875 4.6484375 -17.44921875 4.6484375 -15 4 C-14.67 3.01 -14.34 2.02 -14 1 C-12.04310963 0.63794536 -10.08442332 0.28558579 -8.125 -0.0625 C-7.03445312 -0.25972656 -5.94390625 -0.45695312 -4.8203125 -0.66015625 C-2 -1 -2 -1 0 0 Z " fill="#A5845E" transform="translate(70,53)"/>
<path d="M0 0 C5.61 0 11.22 0 17 0 C17 0.66 17 1.32 17 2 C16.34 2 15.68 2 15 2 C15 2.66 15 3.32 15 4 C14.34 4 13.68 4 13 4 C12.7525 4.61875 12.505 5.2375 12.25 5.875 C10.77753937 8.37818306 9.58971163 8.83045281 7 10 C6.67 10.66 6.34 11.32 6 12 C5.34 12 4.68 12 4 12 C4 12.66 4 13.32 4 14 C2.68 14.99 1.36 15.98 0 17 C0 11.39 0 5.78 0 0 Z " fill="#7A770A" transform="translate(65,98)"/>
<path d="M0 0 C6.05343979 2.01781326 9.27884658 5.94986321 13 11 C13 11.66 13 12.32 13 13 C13.66 13 14.32 13 15 13 C15 15.64 15 18.28 15 21 C13.68 21 12.36 21 11 21 C11 20.34 11 19.68 11 19 C9.35 19 7.7 19 6 19 C3.29928888 12.72019113 1.29975324 6.71539173 0 0 Z " fill="#76DDFC" transform="translate(89,85)"/>
<path d="M0 0 C0.33 0.66 0.66 1.32 1 2 C1.66 2.309375 2.32 2.61875 3 2.9375 C5 4 5 4 6 7 C4.625 9.6875 4.625 9.6875 2 12 C-1.04428195 12.42891945 -3.94666091 12.2935903 -7 12 C-7 11.34 -7 10.68 -7 10 C-7.66 10 -8.32 10 -9 10 C-10.6875 8.3125 -10.6875 8.3125 -12 6 C-11.6875 3.25 -11.6875 3.25 -11 1 C-3.29268293 -1.51969981 -3.29268293 -1.51969981 0 0 Z " fill="#A44602" transform="translate(111,88)"/>
<path d="M0 0 C3.97689776 0.08837551 5.68160711 0.73226052 8.75 3.3125 C10.61098336 5.53534124 11.91575081 7.33866108 13 10 C13.99 10 14.98 10 16 10 C16 10.66 16 11.32 16 12 C15.195625 12.309375 14.39125 12.61875 13.5625 12.9375 C11.10919595 13.76335345 11.10919595 13.76335345 10 15 C7.75 15.5625 7.75 15.5625 5 15 C1.78691834 11.22851953 -0.39635459 6.6651503 -2 2 C-1.34 1.34 -0.68 0.68 0 0 Z " fill="#973F00" transform="translate(105,21)"/>
<path d="M0 0 C5 0 5 0 6.75 1.25 C8.12041836 3.16858571 8.6018827 4.69091968 9 7 C10.32 7.33 11.64 7.66 13 8 C12.6875 10.375 12.6875 10.375 12 13 C8.64672361 15.23551759 8.09256343 15.17283528 4.3125 14.625 C2.889375 14.41875 1.46625 14.2125 0 14 C0 9.38 0 4.76 0 0 Z " fill="#A44500" transform="translate(0,16)"/>
<path d="M0 0 C1.32 0.66 2.64 1.32 4 2 C4 2.66 4 3.32 4 4 C4.639375 4.268125 5.27875 4.53625 5.9375 4.8125 C8 6 8 6 9 9 C9.78375 9.061875 10.5675 9.12375 11.375 9.1875 C12.24125 9.455625 13.1075 9.72375 14 10 C15.3125 12.5625 15.3125 12.5625 16 15 C14.6875 16.5 14.6875 16.5 13 18 C12.01 18 11.02 18 10 18 C10 17.01 10 16.02 10 15 C7.03 14.01 4.06 13.02 1 12 C1 10.35 1 8.7 1 7 C0.34 7 -0.32 7 -1 7 C-1.625 4.625 -1.625 4.625 -2 2 C-1.34 1.34 -0.68 0.68 0 0 Z " fill="#E5A096" transform="translate(60,62)"/>
<path d="M0 0 C2.49361571 1.20381448 4.68143083 2.45428722 7 4 C7 4.66 7 5.32 7 6 C7.66 6 8.32 6 9 6 C9 7.98 9 9.96 9 12 C8.34 12 7.68 12 7 12 C6.30840599 13.84725052 6.30840599 13.84725052 6 16 C6.66 16.99 7.32 17.98 8 19 C4.6690697 19.37010337 3.37268777 19.27461204 0.625 17.25 C-0.179375 16.13625 -0.179375 16.13625 -1 15 C-0.625 12.9375 -0.625 12.9375 0 11 C-0.66 10.01 -1.32 9.02 -2 8 C-2.37569856 4.24301443 -2.1642235 3.24633524 0 0 Z " fill="#DB9886" transform="translate(76,78)"/>
<path d="M0 0 C-1.16789062 0.57427734 -1.16789062 0.57427734 -2.359375 1.16015625 C-5.52575934 3.36632049 -6.08833176 4.8097479 -7.25 8.4375 C-7.56453125 9.38496094 -7.8790625 10.33242188 -8.203125 11.30859375 C-9.61900643 16.09066386 -10.09694021 19.95910891 -10 25 C-8.02 25.33 -6.04 25.66 -4 26 C-3.34 22.7 -2.68 19.4 -2 16 C5.75 16.875 5.75 16.875 8 18 C7.67 19.32 7.34 20.64 7 22 C6.67 21.01 6.34 20.02 6 19 C3.69 18.67 1.38 18.34 -1 18 C-1.144375 19.11375 -1.28875 20.2275 -1.4375 21.375 C-2 25 -2 25 -3 27 C-5.06640625 27.4140625 -5.06640625 27.4140625 -7.5625 27.625 C-8.38878906 27.69976562 -9.21507812 27.77453125 -10.06640625 27.8515625 C-11.02353516 27.92503906 -11.02353516 27.92503906 -12 28 C-13.54721111 21.03754999 -14.21389097 13.23704257 -11.6875 6.5 C-11.130625 5.675 -10.57375 4.85 -10 4 C-9.505 3.236875 -9.01 2.47375 -8.5 1.6875 C-5.81498401 -1.33314299 -3.58102622 -1.11135297 0 0 Z " fill="#9E6335" transform="translate(53,51)"/>
<path d="M0 0 C0.66 0.33 1.32 0.66 2 1 C2 4.63 2 8.26 2 12 C0.68 11.67 -0.64 11.34 -2 11 C-2.33 8.36 -2.66 5.72 -3 3 C-4.32 3.33 -5.64 3.66 -7 4 C-7 4.99 -7 5.98 -7 7 C-6.01 7 -5.02 7 -4 7 C-4.66 8.32 -5.32 9.64 -6 11 C-6.66 10.67 -7.32 10.34 -8 10 C-8.625 6.9375 -8.625 6.9375 -9 4 C-9.99 4.33 -10.98 4.66 -12 5 C-12.33 5.99 -12.66 6.98 -13 8 C-12.34 8 -11.68 8 -11 8 C-11 9.65 -11 11.3 -11 13 C-11.66 13 -12.32 13 -13 13 C-13.50367757 11.54293274 -14.00282556 10.08429904 -14.5 8.625 C-14.7784375 7.81289063 -15.056875 7.00078125 -15.34375 6.1640625 C-16 4 -16 4 -16 2 C-15.38511719 1.86722656 -14.77023438 1.73445313 -14.13671875 1.59765625 C-13.32847656 1.42105469 -12.52023438 1.24445312 -11.6875 1.0625 C-10.88699219 0.88847656 -10.08648437 0.71445312 -9.26171875 0.53515625 C-2.96194082 -0.95546478 -2.96194082 -0.95546478 0 0 Z " fill="#F0AB3B" transform="translate(51,32)"/>
<path d="M0 0 C1.485 0.495 1.485 0.495 3 1 C2.67 2.32 2.34 3.64 2 5 C1.505 4.505 1.505 4.505 1 4 C-3.53669097 3.56313346 -7.68528372 3.46851895 -11.9375 5.1875 C-14.11837324 6.8980106 -14.11837324 6.8980106 -15.3125 9.375 C-17.11102811 12.1727104 -18.16730668 12.80644122 -21 14.375 C-25.38860751 16.90006278 -26.50449845 19.23308882 -28 24 C-28.99 24 -29.98 24 -31 24 C-29.46264662 18.15055789 -28.3126634 14.40555346 -23 11 C-20.8614515 8.8614515 -20.57344937 7.86724686 -20 5 C-20 5.66 -20 6.32 -20 7 C-17.26172037 5.38924728 -14.7421395 3.79488369 -12.25 1.8125 C-8.0526519 -0.52832875 -4.7072912 -0.54694241 0 0 Z " fill="#783200" transform="translate(125,104)"/>
<path d="M0 0 C1.47668858 0.0133035 2.95331108 0.03716415 4.4296875 0.0703125 C5.18378906 0.07933594 5.93789062 0.08835937 6.71484375 0.09765625 C8.57826004 0.1212438 10.44151343 0.15711531 12.3046875 0.1953125 C12.6346875 1.5153125 12.9646875 2.8353125 13.3046875 4.1953125 C10.78575768 4.90061285 8.41354666 5.30670511 5.8046875 5.6328125 C2.41918105 5.99761812 2.41918105 5.99761812 0.0546875 7.3203125 C-0.5228125 7.6090625 -1.1003125 7.8978125 -1.6953125 8.1953125 C-2.6853125 7.8653125 -3.6753125 7.5353125 -4.6953125 7.1953125 C-4.2415625 7.9378125 -3.7878125 8.6803125 -3.3203125 9.4453125 C-2.00890454 11.66461828 -0.81250447 13.87499072 0.3046875 16.1953125 C-2.56228742 14.91011685 -4.67138962 13.62401996 -6.6953125 11.1953125 C-6.6953125 10.5353125 -6.6953125 9.8753125 -6.6953125 9.1953125 C-7.3553125 9.1953125 -8.0153125 9.1953125 -8.6953125 9.1953125 C-8.6953125 6.8853125 -8.6953125 4.5753125 -8.6953125 2.1953125 C-7.7053125 2.1953125 -6.7153125 2.1953125 -5.6953125 2.1953125 C-3.6953125 0.1953125 -3.6953125 0.1953125 0 0 Z " fill="#973F00" transform="translate(85.6953125,64.8046875)"/>
<path d="M0 0 C1.5 1.3125 1.5 1.3125 3 3 C3 3.99 3 4.98 3 6 C3.928125 5.34 4.85625 4.68 5.8125 4 C9 2 9 2 12 2 C11.0022242 4.99332739 10.2477975 5.94766315 8 8 C8.3609375 8.45890625 8.721875 8.9178125 9.09375 9.390625 C9.5578125 10.00421875 10.021875 10.6178125 10.5 11.25 C10.9640625 11.85328125 11.428125 12.4565625 11.90625 13.078125 C13 15 13 15 13 19 C13.66 19 14.32 19 15 19 C15.33 20.65 15.66 22.3 16 24 C14.68 24 13.36 24 12 24 C12 23.01 12 22.02 12 21 C11.01 20.67 10.02 20.34 9 20 C8.95875 18.948125 8.9175 17.89625 8.875 16.8125 C7.98930207 12.9533876 7.13792961 11.35847946 3.96484375 9 C0.21447515 7.09126369 -3.86299568 6.54778516 -8 6 C-7.67 4.68 -7.34 3.36 -7 2 C-4.69 2.66 -2.38 3.32 0 4 C0 2.68 0 1.36 0 0 Z " fill="#783200" transform="translate(8,104)"/>
<path d="M0 0 C1.32 0 2.64 0 4 0 C4.33 2.31 4.66 4.62 5 7 C7.475 7.495 7.475 7.495 10 8 C8.73786958 11.78639125 7.34654649 12.04104596 4 14 C3.01 15.485 3.01 15.485 2 17 C1.67 16.01 1.34 15.02 1 14 C0.21625 14.04125 -0.5675 14.0825 -1.375 14.125 C-4 14 -4 14 -6 12 C-9.08347826 11.83318891 -9.08347826 11.83318891 -12 12 C-11.938125 11.21625 -11.87625 10.4325 -11.8125 9.625 C-11.874375 8.75875 -11.93625 7.8925 -12 7 C-15.18762365 4.87491756 -17.26512223 4.4979837 -21 4 C-20.67 3.01 -20.34 2.02 -20 1 C-10.90909091 2.96969697 -10.90909091 2.96969697 -8 6 C-8 6.99 -8 7.98 -8 9 C-6.948125 9.185625 -6.948125 9.185625 -5.875 9.375 C-2.82343613 10.03838345 0.05340938 10.97211955 3 12 C2.69106068 10.3743193 2.3777305 8.74947252 2.0625 7.125 C1.88847656 6.22007812 1.71445312 5.31515625 1.53515625 4.3828125 C1.10036299 2.00043683 1.10036299 2.00043683 0 0 Z " fill="#783200" transform="translate(21,0)"/>
<path d="M0 0 C3.0625 0.1875 3.0625 0.1875 5.0625 2.1875 C7.04606483 2.90158334 9.04565437 3.57367742 11.0625 4.1875 C9.4794423 8.4617558 6.55681596 10.45281794 3.0625 13.1875 C-0.07248176 12.10647181 -0.9243559 11.20909388 -2.6875 8.3125 C-3.9375 5.1875 -3.9375 5.1875 -3.9375 1.1875 C-2.9375 0.1875 -2.9375 0.1875 0 0 Z " fill="#AC4800" transform="translate(111.9375,8.8125)"/>
<path d="M0 0 C0.87269531 -0.01417969 1.74539062 -0.02835938 2.64453125 -0.04296875 C5.29669085 0.19739594 6.91214999 0.84562691 9.1875 2.1875 C8.8575 3.8375 8.5275 5.4875 8.1875 7.1875 C7.28257813 7.27837891 7.28257813 7.27837891 6.359375 7.37109375 C5.16054687 7.49677734 5.16054687 7.49677734 3.9375 7.625 C3.14859375 7.70621094 2.3596875 7.78742187 1.546875 7.87109375 C-0.80682405 8.12890266 -0.80682405 8.12890266 -3 8.8125 C-3.598125 8.93625 -4.19625 9.06 -4.8125 9.1875 C-6.5625 7.75 -6.5625 7.75 -7.8125 6.1875 C-5.44803196 0.0398831 -5.44803196 0.0398831 0 0 Z " fill="#A34400" transform="translate(77.8125,54.8125)"/>
<path d="M0 0 C2.70906646 2.70906646 2.74514674 4.81156616 3.11328125 8.53515625 C2.92738588 12.57998302 1.13531273 15.63665333 -1 19 C-1.66 19 -2.32 19 -3 19 C-3.33 19.99 -3.66 20.98 -4 22 C-4.99 21.67 -5.98 21.34 -7 21 C-7.51627434 15.57911944 -5.94524148 13.41786222 -3 9 C-2.66405867 5.74822148 -2.66405867 5.74822148 -3 3 C-2.34 3 -1.68 3 -1 3 C-0.67 2.01 -0.34 1.02 0 0 Z " fill="#2DD750" transform="translate(88,92)"/>
<path d="M0 0 C0.33 0.66 0.66 1.32 1 2 C2.65391846 2.39171753 4.32345271 2.72057545 6 3 C6.99 3.33 7.98 3.66 9 4 C8.52060632 8.71403788 8.03165952 12.66579301 6 17 C3.5625 16.25 3.5625 16.25 1 15 C0.3125 13.1875 0.3125 13.1875 0 11 C-0.37125 10.195625 -0.7425 9.39125 -1.125 8.5625 C-2.14560882 5.57357418 -1.91272153 3.98708863 -1 1 C-0.67 0.67 -0.34 0.34 0 0 Z " fill="#5F1207" transform="translate(41,101)"/>
<path d="M0 0 C3.3 0 6.6 0 10 0 C10 5.61 10 11.22 10 17 C9.34 17 8.68 17 8 17 C5 12.61538462 5 12.61538462 5 10 C4.34 10 3.68 10 3 10 C3 9.01 3 8.02 3 7 C2.34 7 1.68 7 1 7 C0.67 4.69 0.34 2.38 0 0 Z " fill="#8F1053" transform="translate(55,98)"/>
<path d="M0 0 C1.27875 0.144375 2.5575 0.28875 3.875 0.4375 C8.91280884 0.99814645 13.95536879 1.50501531 19 2 C19 2.66 19 3.32 19 4 C18.1028125 4.37125 18.1028125 4.37125 17.1875 4.75 C14.86575942 5.8720306 14.86575942 5.8720306 13.5 8.125 C13.005 8.74375 12.51 9.3625 12 10 C10.68 10 9.36 10 8 10 C8 10.66 8 11.32 8 12 C7.34 12 6.68 12 6 12 C6 10.02 6 8.04 6 6 C4.02 5.34 2.04 4.68 0 4 C0 2.68 0 1.36 0 0 Z " fill="#AB4700" transform="translate(15,83)"/>
<path d="M0 0 C0.33 0 0.66 0 1 0 C1 5.94 1 11.88 1 18 C-0.32 18 -1.64 18 -3 18 C-3.66 17.34 -4.32 16.68 -5 16 C-7.10820797 16.3185177 -7.10820797 16.3185177 -9 17 C-9.33 15.68 -9.66 14.36 -10 13 C-9.34 12.67 -8.68 12.34 -8 12 C-8 11.34 -8 10.68 -8 10 C-7.34 9.67 -6.68 9.34 -6 9 C-5.835 8.34 -5.67 7.68 -5.5 7 C-5.335 6.34 -5.17 5.68 -5 5 C-4.34 4.67 -3.68 4.34 -3 4 C-3 3.34 -3 2.68 -3 2 C-2.01 2 -1.02 2 0 2 C0 1.34 0 0.68 0 0 Z " fill="#CB7F11" transform="translate(78,26)"/>
<path d="M0 0 C0.53625 0.2475 1.0725 0.495 1.625 0.75 C1.625 1.41 1.625 2.07 1.625 2.75 C-0.685 3.41 -2.995 4.07 -5.375 4.75 C-4.715 7.06 -4.055 9.37 -3.375 11.75 C-0.405 12.245 -0.405 12.245 2.625 12.75 C2.625 11.76 2.625 10.77 2.625 9.75 C1.635 9.75 0.645 9.75 -0.375 9.75 C-0.045 8.43 0.285 7.11 0.625 5.75 C1.945 5.75 3.265 5.75 4.625 5.75 C4.625 8.72 4.625 11.69 4.625 14.75 C0.625 16.75 0.625 16.75 -3.375 16.75 C-6.88733097 13.47714614 -8.16369049 11.86417742 -9.0625 7.125 C-8.375 3.75 -8.375 3.75 -5.625 1.25 C-2.375 -0.25 -2.375 -0.25 0 0 Z " fill="#ECA839" transform="translate(17.375,36.25)"/>
<path d="M0 0 C3.75376152 1.25125384 4.24073289 2.5652404 6 6 C6 6.66 6 7.32 6 8 C5.39671875 8.19335938 4.7934375 8.38671875 4.171875 8.5859375 C3.37265625 8.84632812 2.5734375 9.10671875 1.75 9.375 C0.96109375 9.63023438 0.1721875 9.88546875 -0.640625 10.1484375 C-3.32716625 11.06608073 -3.32716625 11.06608073 -7 13 C-7.66 9.7 -8.32 6.4 -9 3 C-8.071875 2.87625 -7.14375 2.7525 -6.1875 2.625 C-2.86074765 2.18466918 -2.86074765 2.18466918 0 0 Z " fill="#AC4800" transform="translate(18,97)"/>
<path d="M0 0 C0 4.62 0 9.24 0 14 C-4 15 -4 15 -6.625 13.8125 C-9.02701786 11.97938111 -9.94365836 10.7849007 -11 8 C-4.91304348 0 -4.91304348 0 0 0 Z " fill="#A44500" transform="translate(128,16)"/>
<path d="M0 0 C0.66 0.66 1.32 1.32 2 2 C4.65537372 2.56520003 7.29144713 2.73788198 10 3 C10.33 3.99 10.66 4.98 11 6 C11.66 6.33 12.32 6.66 13 7 C12.3125 8.9375 12.3125 8.9375 11 11 C8.0639644 12.11093239 6.36876722 12.08575982 3.3125 11.375 C1 10 1 10 -0.375 7.6875 C-1.06313804 4.72850644 -0.82756731 2.89648559 0 0 Z " fill="#913F01" transform="translate(100,45)"/>
<path d="M0 0 C7.71484375 -0.09765625 7.71484375 -0.09765625 10 0 C11 1 11 1 11.0625 3.5625 C11.041875 4.366875 11.02125 5.17125 11 6 C10.34 6 9.68 6 9 6 C8.67 8.31 8.34 10.62 8 13 C7.01 13 6.02 13 5 13 C4.875 10.125 4.875 10.125 5 7 C5.66 6.34 6.32 5.68 7 5 C5.68 5.33 4.36 5.66 3 6 C3 7.32 3 8.64 3 10 C1.68 10.33 0.36 10.66 -1 11 C-0.67 7.37 -0.34 3.74 0 0 Z " fill="#E59C2E" transform="translate(89,33)"/>
<path d="M0 0 C1.6875 1.375 1.6875 1.375 3 3 C5.09989652 4.17574711 5.09989652 4.17574711 7 5 C7 5.66 7 6.32 7 7 C2.88134787 8.56901033 -0.58891096 9.68616941 -5 9 C-6.75 6.625 -6.75 6.625 -8 4 C-8.66 3.34 -9.32 2.68 -10 2 C-6.30513897 -0.46324069 -4.36706908 -0.38991688 0 0 Z " fill="#A44500" transform="translate(101,12)"/>
<path d="M0 0 C1.2065625 0.0309375 1.2065625 0.0309375 2.4375 0.0625 C2.4375 2.7025 2.4375 5.3425 2.4375 8.0625 C-0.68020921 9.91003138 -2.94365411 10.60532688 -6.5625 10.0625 C-8.875 8.25 -8.875 8.25 -10.5625 6.0625 C-10.5625 5.0725 -10.5625 4.0825 -10.5625 3.0625 C-9.428125 2.753125 -8.29375 2.44375 -7.125 2.125 C0 0 0 0 0 0 Z " fill="#973F00" transform="translate(125.5625,82.9375)"/>
<path d="M0 0 C0 1.32 0 2.64 0 4 C-0.94875 4.0825 -1.8975 4.165 -2.875 4.25 C-3.90625 4.4975 -4.9375 4.745 -6 5 C-6.433125 5.9590625 -6.433125 5.9590625 -6.875 6.9375 C-8 9 -8 9 -9.78515625 9.671875 C-11.8492515 10.1663588 -13.91900913 10.58380183 -16 11 C-16.99 11.33 -17.98 11.66 -19 12 C-19.66 11.67 -20.32 11.34 -21 11 C-21 10.34 -21 9.68 -21 9 C-18.08235 7.0549 -16.37462715 6.54723683 -13 6 C-13 5.34 -13 4.68 -13 4 C-12.01 4 -11.02 4 -10 4 C-10 3.34 -10 2.68 -10 2 C-6.3558226 -0.4294516 -4.28758728 -0.16179575 0 0 Z " fill="#7E3505" transform="translate(61,76)"/>
<path d="M0 0 C0.66 0.33 1.32 0.66 2 1 C0.76302083 2.39973958 -0.47395833 3.79947917 -1.7109375 5.19921875 C-4.98172873 9.76841499 -5.22840992 13.78006948 -5.125 19.3125 C-5.09792969 21.19388672 -5.09792969 21.19388672 -5.0703125 23.11328125 C-5.04710937 24.06589844 -5.02390625 25.01851562 -5 26 C-5.99 26 -6.98 26 -8 26 C-8 22.7 -8 19.4 -8 16 C-9.65 15.67 -11.3 15.34 -13 15 C-11.79725219 10.32264742 -9.58549646 8.78926177 -5.75390625 6.26953125 C-3.35210976 4.53103713 -1.71324046 2.39853664 0 0 Z " fill="#974B14" transform="translate(46,49)"/>
<path d="M0 0 C2.4375 0.8125 2.4375 0.8125 4.4375 2.8125 C4.6328125 5.1953125 4.6328125 5.1953125 4.5625 7.9375 C4.54445312 8.84757813 4.52640625 9.75765625 4.5078125 10.6953125 C4.48460937 11.39398438 4.46140625 12.09265625 4.4375 12.8125 C3.4475 12.8125 2.4575 12.8125 1.4375 12.8125 C1.1075 11.8225 0.7775 10.8325 0.4375 9.8125 C-2.57097418 8.58729736 -2.57097418 8.58729736 -5.5625 7.8125 C-5.78982116 5.00887237 -5.90331872 3.35063483 -4.375 0.9375 C-2.5625 -0.1875 -2.5625 -0.1875 0 0 Z " fill="#973F00" transform="translate(123.5625,1.1875)"/>
<path d="M0 0 C2.5625 0.1875 2.5625 0.1875 4.5625 2.1875 C7.13311311 2.83517793 7.13311311 2.83517793 9.5625 3.1875 C9.5625 4.5075 9.5625 5.8275 9.5625 7.1875 C8.44875 7.31125 7.335 7.435 6.1875 7.5625 C2.53146323 7.8340813 2.53146323 7.8340813 0.5625 10.1875 C-0.4275 10.1875 -1.4175 10.1875 -2.4375 10.1875 C-4.51957071 5.77840909 -4.51957071 5.77840909 -4.125 2.9375 C-3.08903891 0.30050813 -2.92496747 0.2249975 0 0 Z " fill="#AD4800" transform="translate(12.4375,10.8125)"/>
<path d="M0 0 C0 2.31 0 4.62 0 7 C-5.94 7.495 -5.94 7.495 -12 8 C-11.67 9.65 -11.34 11.3 -11 13 C-11.61875 12.79375 -12.2375 12.5875 -12.875 12.375 C-13.57625 12.25125 -14.2775 12.1275 -15 12 C-15.66 12.66 -16.32 13.32 -17 14 C-17 12.68 -17 11.36 -17 10 C-16.34 10 -15.68 10 -15 10 C-15 8.68 -15 7.36 -15 6 C-14.45730469 5.81824219 -13.91460937 5.63648437 -13.35546875 5.44921875 C-12.64003906 5.19785156 -11.92460938 4.94648437 -11.1875 4.6875 C-10.47980469 4.44386719 -9.77210937 4.20023437 -9.04296875 3.94921875 C-6.92407476 3.11848154 -6.92407476 3.11848154 -5.48828125 1.39453125 C-4 0 -4 0 0 0 Z " fill="#7C0344" transform="translate(56,90)"/>
<path d="M0 0 C3.625 0.375 3.625 0.375 7 1 C7.33 2.32 7.66 3.64 8 5 C5 7 5 7 2 7 C2 7.99 2 8.98 2 10 C3.98 9.34 5.96 8.68 8 8 C8 8.99 8 9.98 8 11 C6.02 11.33 4.04 11.66 2 12 C-1.89708405 7.73756432 -1.89708405 7.73756432 -2.375 4.3125 C-2 2 -2 2 0 0 Z " fill="#DF9423" transform="translate(26,36)"/>
<path d="M0 0 C2.4375 0.75 2.4375 0.75 4.4375 2.75 C4.0625 4.875 4.0625 4.875 3.4375 6.75 C1.4575 6.75 -0.5225 6.75 -2.5625 6.75 C-2.5625 7.41 -2.5625 8.07 -2.5625 8.75 C-0.9125 9.08 0.7375 9.41 2.4375 9.75 C2.1075 10.41 1.7775 11.07 1.4375 11.75 C-1.4375 11.9375 -1.4375 11.9375 -4.5625 11.75 C-6.5625 8.75 -6.5625 8.75 -6.375 5.1875 C-5.4068221 1.09136272 -4.38870004 -0.42816586 0 0 Z " fill="#E19527" transform="translate(106.5625,36.25)"/>
<path d="M0 0 C-3.82320557 1.42258812 -6.91281305 2.24042276 -11 2 C-10.95875 2.928125 -10.9175 3.85625 -10.875 4.8125 C-11 8 -11 8 -13 11 C-15.62356462 11.98515378 -18.24524123 12.42238929 -21 13 C-20.67 10.69 -20.34 8.38 -20 6 C-19.195625 5.731875 -18.39125 5.46375 -17.5625 5.1875 C-16.716875 4.795625 -15.87125 4.40375 -15 4 C-14.67 3.01 -14.34 2.02 -14 1 C-12.04310963 0.63794536 -10.08442332 0.28558579 -8.125 -0.0625 C-7.03445312 -0.25972656 -5.94390625 -0.45695312 -4.8203125 -0.66015625 C-2 -1 -2 -1 0 0 Z " fill="#BC9B85" transform="translate(70,53)"/>
<path d="M0 0 C5.28 0 10.56 0 16 0 C16.66 1.32 17.32 2.64 18 4 C16.3603125 4.2165625 16.3603125 4.2165625 14.6875 4.4375 C11.06877013 4.88288104 11.06877013 4.88288104 8 6 C8 6.66 8 7.32 8 8 C4.27382578 6.75794193 2.60708543 4.8889325 0 2 C0 1.34 0 0.68 0 0 Z " fill="#A44500" transform="translate(52,0)"/>
<path d="M0 0 C2.93646343 1.03639886 3.84726875 1.69453751 5.265625 4.53125 C5.59046875 5.5109375 5.9153125 6.490625 6.25 7.5 C6.58515625 8.4796875 6.9203125 9.459375 7.265625 10.46875 C8 13 8 13 8 15 C5.125 15.125 5.125 15.125 2 15 C0 13 0 13 -0.1953125 9.9609375 C-0.17210938 8.77757813 -0.14890625 7.59421875 -0.125 6.375 C-0.10695312 5.18648438 -0.08890625 3.99796875 -0.0703125 2.7734375 C-0.04710937 1.85820313 -0.02390625 0.94296875 0 0 Z " fill="#973F00" transform="translate(0,93)"/>
<path d="M0 0 C4.79118497 0.04118497 4.79118497 0.04118497 7.375 2.625 C8.125 5.375 8.125 5.375 7.3125 7.6875 C6.920625 8.244375 6.52875 8.80125 6.125 9.375 C5.465 9.375 4.805 9.375 4.125 9.375 C3.691875 8.88 3.25875 8.385 2.8125 7.875 C1.16479648 6.10288682 1.16479648 6.10288682 -1.5625 6.1875 C-2.7071875 6.2803125 -2.7071875 6.2803125 -3.875 6.375 C-4.535 4.725 -5.195 3.075 -5.875 1.375 C-4.21469118 -0.28530882 -2.27746403 0.08581749 0 0 Z " fill="#EC8CA1" transform="translate(36.875,86.625)"/>
<path d="M0 0 C3.63 0 7.26 0 11 0 C10.8125 2.875 10.8125 2.875 10 6 C7.41792516 7.60507355 5.83846514 8.07186844 2.8125 7.8125 C1 7 1 7 -1 4 C-0.67 2.68 -0.34 1.36 0 0 Z " fill="#A34400" transform="translate(90,72)"/>
<path d="M0 0 C0.99 0 1.98 0 3 0 C3 0.66 3 1.32 3 2 C3.99 2.33 4.98 2.66 6 3 C6.33 3.99 6.66 4.98 7 6 C7.66 6.33 8.32 6.66 9 7 C9 7.99 9 8.98 9 10 C9.66 10 10.32 10 11 10 C10.67 12.31 10.34 14.62 10 17 C9.01 17.33 8.02 17.66 7 18 C5 16 5 16 4.8046875 13.6171875 C4.83949219 12.25980469 4.83949219 12.25980469 4.875 10.875 C4.89304687 9.96492188 4.91109375 9.05484375 4.9296875 8.1171875 C4.96449219 7.06917969 4.96449219 7.06917969 5 6 C4.01 6 3.02 6 2 6 C2 5.34 2 4.68 2 4 C1.34 4 0.68 4 0 4 C0 2.68 0 1.36 0 0 Z " fill="#DD9647" transform="translate(49,98)"/>
<path d="M0 0 C0.66 0 1.32 0 2 0 C2 3.3 2 6.6 2 10 C-1.3125 10.25 -1.3125 10.25 -5 10 C-6.9375 8.25 -6.9375 8.25 -8 6 C-8 4.68 -8 3.36 -8 2 C-6.865625 1.855625 -5.73125 1.71125 -4.5625 1.5625 C-1.19222799 1.38828522 -1.19222799 1.38828522 0 0 Z " fill="#AD4800" transform="translate(126,33)"/>
<path d="M0 0 C5.625 -0.25 5.625 -0.25 9 2 C8.42906864 5.3114019 7.45395174 6.75054423 5 9 C4.67 9.66 4.34 10.32 4 11 C2.68 11 1.36 11 0 11 C0 7.37 0 3.74 0 0 Z " fill="#AC4800" transform="translate(0,33)"/>
<path d="M0 0 C7.09629025 -0.31461385 12.68284595 -0.44572039 19 3 C19 3.33 19 3.66 19 4 C17.02 4 15.04 4 13 4 C12.34 5.32 11.68 6.64 11 8 C10.67 7.34 10.34 6.68 10 6 C6.54956883 4.84985628 3.64717645 4 0 4 C0 2.68 0 1.36 0 0 Z " fill="#914208" transform="translate(86,82)"/>
<path d="M0 0 C1.67542976 0.28604898 3.34385343 0.61781233 5 1 C5.66 2.98 6.32 4.96 7 7 C2.05 7 -2.9 7 -8 7 C-8 6.01 -8 5.02 -8 4 C-6.865625 3.525625 -5.73125 3.05125 -4.5625 2.5625 C-1.24259834 1.36377917 -1.24259834 1.36377917 0 0 Z " fill="#A54500" transform="translate(61,121)"/>
<path d="M0 0 C2.6875 0 2.6875 0 6 1 C8.4194655 3.84459122 11 7.16527165 11 11 C11.66 11 12.32 11 13 11 C13 11.66 13 12.32 13 13 C11.35 13.33 9.7 13.66 8 14 C0 2.97297297 0 2.97297297 0 0 Z " fill="#490B29" transform="translate(25,97)"/>
<path d="M0 0 C6.05343979 2.01781326 9.27884658 5.94986321 13 11 C13 11.66 13 12.32 13 13 C13.66 13 14.32 13 15 13 C14.67 13.99 14.34 14.98 14 16 C12.68 15.67 11.36 15.34 10 15 C9.938125 14.21625 9.87625 13.4325 9.8125 12.625 C9.26097345 9.77944087 9.26097345 9.77944087 6.5625 8.625 C4.03112869 7.71509517 4.03112869 7.71509517 2 9 C1.34 6.03 0.68 3.06 0 0 Z " fill="#5994EC" transform="translate(89,85)"/>
<path d="M0 0 C1.0209375 0.2165625 1.0209375 0.2165625 2.0625 0.4375 C5.1090817 1.07390734 5.1090817 1.07390734 8.6875 1.3125 C12 2 12 2 13.4375 4.0625 C13.7159375 5.0215625 13.7159375 5.0215625 14 6 C10.86186115 7.65165202 8.8216503 8.23720262 5.375 7.2421875 C2.87908024 6.2282201 0.4301468 5.16224412 -2 4 C-1.34 2.68 -0.68 1.36 0 0 Z " fill="#963F00" transform="translate(103,77)"/>
<path d="M0 0 C3.36704285 -0.2295711 5.41370268 -0.33943529 8.375 1.375 C8.91125 1.91125 9.4475 2.4475 10 3 C10 5 10 5 8.375 7.125 C5.39534381 9.47736015 3.70293685 9.33663062 0 9 C0 6.03 0 3.06 0 0 Z " fill="#973F00" transform="translate(0,4)"/>
<path d="M0 0 C1.98 0 3.96 0 6 0 C6 0.33 6 0.66 6 1 C4.02 1.33 2.04 1.66 0 2 C0 1.34 0 0.68 0 0 Z M-1 2 C-1 4.83967231 -1.40267181 7.23735711 -2 10 C-0.7625 10.7115625 -0.7625 10.7115625 0.5 11.4375 C1.325 11.953125 2.15 12.46875 3 13 C3 13.33 3 13.66 3 14 C-1.05606165 13.53199289 -4.46588679 13.12046792 -8 11 C-8 9.02 -8 7.04 -8 5 C-5.69 4.01 -3.38 3.02 -1 2 Z " fill="#7A3503" transform="translate(73,52)"/>
<path d="M0 0 C0.33 0 0.66 0 1 0 C1 4.29 1 8.58 1 13 C0.01 13 -0.98 13 -2 13 C-3.37868281 11.37064759 -4.71274093 9.70250393 -6 8 C-6.66 7.67 -7.32 7.34 -8 7 C-7.3125 5.125 -7.3125 5.125 -6 3 C-3.4375 1.8125 -3.4375 1.8125 -1 1 C-0.67 0.67 -0.34 0.34 0 0 Z " fill="#983F00" transform="translate(127,57)"/>
<path d="M0 0 C0 0.66 0 1.32 0 2 C-1.2065625 2.4021875 -1.2065625 2.4021875 -2.4375 2.8125 C-3.283125 3.204375 -4.12875 3.59625 -5 4 C-5.33 4.99 -5.66 5.98 -6 7 C-5.01 7 -4.02 7 -3 7 C-3 7.99 -3 8.98 -3 10 C-5.875 10.1875 -5.875 10.1875 -9 10 C-11.1519437 6.77208445 -11.20086443 5.71599191 -11 2 C-9.73392393 1.46770674 -8.46189588 0.94955456 -7.1875 0.4375 C-6.47980469 0.14746094 -5.77210937 -0.14257812 -5.04296875 -0.44140625 C-3 -1 -3 -1 0 0 Z " fill="#883F01" transform="translate(23,39)"/>
<path d="M0 0 C2.97 0 5.94 0 9 0 C9 2.31 9 4.62 9 7 C6.03 7 3.06 7 0 7 C0 4.69 0 2.38 0 0 Z " fill="#D1A21B" transform="translate(56,90)"/>
<path d="M0 0 C1.37342831 0.0689472 2.75002102 0.08467708 4.125 0.0625 C6.043125 0.0315625 6.043125 0.0315625 8 0 C7.01 1.485 7.01 1.485 6 3 C2.55709307 3.35245276 -0.77925765 3.43643292 -4.234375 3.43945312 C-6.63126593 3.4630889 -6.63126593 3.4630889 -10 4 C-11.59656868 5.89881258 -11.59656868 5.89881258 -12 8 C-13.32 7.67 -14.64 7.34 -16 7 C-15.21625 6.7525 -14.4325 6.505 -13.625 6.25 C-10.86572973 5.28751685 -10.86572973 5.28751685 -10.125 3 C-9 1 -9 1 -5.5 -0.3125 C-2 -1 -2 -1 0 0 Z " fill="#A24335" transform="translate(60,87)"/>
<path d="M0 0 C1.32 0 2.64 0 4 0 C4 2.31 4 4.62 4 7 C1.36 7.66 -1.28 8.32 -4 9 C-7 5.25 -7 5.25 -7 3 C-5.5459375 2.5359375 -5.5459375 2.5359375 -4.0625 2.0625 C-1.15934208 1.30476658 -1.15934208 1.30476658 0 0 Z " fill="#A44500" transform="translate(124,73)"/>
<path d="M0 0 C6.43538595 -0.36426713 6.43538595 -0.36426713 8.9375 1.25 C10 3 10 3 10 7 C6.7 7 3.4 7 0 7 C0 4.69 0 2.38 0 0 Z " fill="#F947CF" transform="translate(65,90)"/>
<path d="M0 0 C3.375 0.3125 3.375 0.3125 7 1 C7.66 1.99 8.32 2.98 9 4 C9.99 4.33 10.98 4.66 12 5 C11.67 6.32 11.34 7.64 11 9 C10.67 8.34 10.34 7.68 10 7 C7.06769549 5.01871317 4.48897679 3.64610681 1 3 C0.7834375 4.423125 0.7834375 4.423125 0.5625 5.875 C0 9 0 9 -1 11 C-3.64860427 11.59355614 -6.29197322 11.74209269 -9 12 C-9.33 11.34 -9.66 10.68 -10 10 C-7.36 9.67 -4.72 9.34 -2 9 C-1.34 6.03 -0.68 3.06 0 0 Z " fill="#9A4D15" transform="translate(52,69)"/>
<path d="M0 0 C2.64 0 5.28 0 8 0 C7.67 2.64 7.34 5.28 7 8 C4.625 8.625 4.625 8.625 2 9 C0 7 0 7 -0.125 3.375 C-0.08375 2.26125 -0.0425 1.1475 0 0 Z " fill="#A24400" transform="translate(25,0)"/>
<path d="M0 0 C-0.66 2.64 -1.32 5.28 -2 8 C-4.3125 8.625 -4.3125 8.625 -7 9 C-7.99 8.34 -8.98 7.68 -10 7 C-9.6875 4.625 -9.6875 4.625 -9 2 C-5.5647952 -0.29013653 -4.014669 -0.17842973 0 0 Z " fill="#963F00" transform="translate(27,74)"/>
<path d="M0 0 C0.33 0 0.66 0 1 0 C1.05382106 2.62527189 1.09358313 5.24944713 1.125 7.875 C1.14175781 8.62136719 1.15851562 9.36773437 1.17578125 10.13671875 C1.1933959 12.09194461 1.10320189 14.04742021 1 16 C0.34 16.66 -0.32 17.32 -1 18 C-1.4125 17.525625 -1.825 17.05125 -2.25 16.5625 C-4.182185 14.83733482 -5.48192275 14.43415125 -8 14 C-8 15.65 -8 17.3 -8 19 C-8.33 19 -8.66 19 -9 19 C-9 15.7 -9 12.4 -9 9 C-6.525 9.495 -6.525 9.495 -4 10 C-4 10.66 -4 11.32 -4 12 C-2.68 12.33 -1.36 12.66 0 13 C0 8.71 0 4.42 0 0 Z " fill="#AE560A" transform="translate(62,25)"/>
<path d="M0 0 C0.66 0 1.32 0 2 0 C2 0.99 2 1.98 2 3 C0.37681021 3.36237263 -1.2486358 3.71465157 -2.875 4.0625 C-4.23238281 4.35833984 -4.23238281 4.35833984 -5.6171875 4.66015625 C-8 5 -8 5 -10 4 C-14.88644767 4.99538749 -17.78595811 6.14314973 -21 10 C-21.99 9.67 -22.98 9.34 -24 9 C-23 6 -23 6 -21.234375 4.9140625 C-14.38714893 2.11292456 -8.39137705 0.73122265 -1 1 C-0.67 0.67 -0.34 0.34 0 0 Z " fill="#923D1F" transform="translate(68,83)"/>
<path d="M0 0 C4.16138263 -0.08159574 7.9472484 0.01751476 12 1 C12 1.99 12 2.98 12 4 C8.3558226 6.4294516 6.28758728 6.16179575 2 6 C1.67 5.01 1.34 4.02 1 3 C0.34 3 -0.32 3 -1 3 C-0.67 2.01 -0.34 1.02 0 0 Z " fill="#973F00" transform="translate(63,7)"/>
<path d="M0 0 C0.99 0.66 1.98 1.32 3 2 C3 2.99 3 3.98 3 5 C3.99 5 4.98 5 6 5 C6.33 4.01 6.66 3.02 7 2 C7.66 2 8.32 2 9 2 C9 1.34 9 0.68 9 0 C9.99 0 10.98 0 12 0 C12.33 1.98 12.66 3.96 13 6 C12.4225 5.773125 11.845 5.54625 11.25 5.3125 C8.90083039 4.72256362 8.90083039 4.72256362 7 6.4375 C6.01 7.2109375 6.01 7.2109375 5 8 C3.68 8 2.36 8 1 8 C1 7.34 1 6.68 1 6 C-0.32 5.67 -1.64 5.34 -3 5 C-2.34 5 -1.68 5 -1 5 C-0.67 3.35 -0.34 1.7 0 0 Z " fill="#974A25" transform="translate(60,110)"/>
<path d="M0 0 C2.31 0.66 4.62 1.32 7 2 C7 2.66 7 3.32 7 4 C7.61875 4.185625 8.2375 4.37125 8.875 4.5625 C11 6 11 6 12.4375 9.3125 C13 13 13 13 11.625 15.9375 C11.08875 16.618125 10.5525 17.29875 10 18 C9.01 17.67 8.02 17.34 7 17 C7.33 16.34 7.66 15.68 8 15 C8.66 15 9.32 15 10 15 C10 13.02 10 11.04 10 9 C9.34 9 8.68 9 8 9 C6.29006566 7.3777546 4.62652316 5.70586575 3 4 C2.401875 3.4225 1.80375 2.845 1.1875 2.25 C0 1 0 1 0 0 Z " fill="#9B6143" transform="translate(75,75)"/>
<path d="M0 0 C0.66 0 1.32 0 2 0 C2.67493341 2.22667765 3.33963044 4.45645977 4 6.6875 C4.37125 7.92886719 4.7425 9.17023438 5.125 10.44921875 C5.87703457 13.5010019 6.19034899 15.88898362 6 19 C4.68 19 3.36 19 2 19 C1.67 14.71 1.34 10.42 1 6 C0.01 6 -0.98 6 -2 6 C-1.34 4.02 -0.68 2.04 0 0 Z " fill="#225FB2" transform="translate(88,86)"/>
<path d="M0 0 C0.99 0 1.98 0 3 0 C3 0.66 3 1.32 3 2 C3.66 2 4.32 2 5 2 C5 2.66 5 3.32 5 4 C5.66 4 6.32 4 7 4 C7 4.66 7 5.32 7 6 C7.99 6 8.98 6 10 6 C10.625 9.375 10.625 9.375 11 13 C10.34 13.66 9.68 14.32 9 15 C8.34 12.36 7.68 9.72 7 7 C4.03 6.505 4.03 6.505 1 6 C0.67 4.02 0.34 2.04 0 0 Z " fill="#B65A39" transform="translate(44,98)"/>
<path d="M0 0 C2.76223278 2.76223278 2.57856291 5.20706617 3 9 C2.39671875 9.08121094 1.7934375 9.16242188 1.171875 9.24609375 C-1.68175609 10.23665274 -2.27109721 11.47442011 -3.75 14.0625 C-4.17796875 14.79597656 -4.6059375 15.52945313 -5.046875 16.28515625 C-5.51867187 17.13400391 -5.51867187 17.13400391 -6 18 C-6.33 17.01 -6.66 16.02 -7 15 C-6.0409375 13.6078125 -6.0409375 13.6078125 -5.0625 12.1875 C-2.80258362 8.69490196 -2.61344149 7.05886438 -3 3 C-2.34 3 -1.68 3 -1 3 C-0.67 2.01 -0.34 1.02 0 0 Z " fill="#2CCBB6" transform="translate(88,92)"/>
<path d="M0 0 C7.75 0.875 7.75 0.875 10 2 C9.67 3.32 9.34 4.64 9 6 C8.67 5.01 8.34 4.02 8 3 C5.69 2.67 3.38 2.34 1 2 C0.855625 3.11375 0.71125 4.2275 0.5625 5.375 C0 9 0 9 -1 11 C-3.06640625 11.4140625 -3.06640625 11.4140625 -5.5625 11.625 C-6.80193359 11.73714844 -6.80193359 11.73714844 -8.06640625 11.8515625 C-9.02353516 11.92503906 -9.02353516 11.92503906 -10 12 C-10 11.01 -10 10.02 -10 9 C-7.36 9.33 -4.72 9.66 -2 10 C-1.34 6.7 -0.68 3.4 0 0 Z " fill="#A26232" transform="translate(51,67)"/>
<path d="M0 0 C1.98 0 3.96 0 6 0 C6 0.99 6 1.98 6 3 C5.01 3 4.02 3 3 3 C3.33 3.99 3.66 4.98 4 6 C3.01 6 2.02 6 1 6 C0.67 7.65 0.34 9.3 0 11 C-0.66 11 -1.32 11 -2 11 C-1.67 11.99 -1.34 12.98 -1 14 C-1.99 14 -2.98 14 -4 14 C-3.21272588 10.58847882 -2.1065475 7.31964251 -1 4 C-0.65023242 2.67088318 -0.30903983 1.33917261 0 0 Z " fill="#F2AD3A" transform="translate(72,25)"/>
<path d="M0 0 C2.375 0.1875 2.375 0.1875 5 1 C6.125 3.25 6.125 3.25 7 6 C7.556875 6.886875 8.11375 7.77375 8.6875 8.6875 C9.120625 9.450625 9.55375 10.21375 10 11 C9.67 11.66 9.34 12.32 9 13 C8.62875 12.38125 8.2575 11.7625 7.875 11.125 C5.51377094 8.4489404 3.39868348 7.9063156 0 7 C0 4.69 0 2.38 0 0 Z " fill="#A14400" transform="translate(0,73)"/>
<path d="M0 0 C2.475 0.495 2.475 0.495 5 1 C5.33 1.99 5.66 2.98 6 4 C5.34 4.66 4.68 5.32 4 6 C3.60235737 7.98821313 3.26224651 9.98944339 3 12 C2.01 12 1.02 12 0 12 C0 8.04 0 4.08 0 0 Z " fill="#973F00" transform="translate(0,58)"/>
<path d="M0 0 C1.65 0 3.3 0 5 0 C4.5020163 3.73487777 4.12508244 5.81237635 2 9 C1.75944532 11.05709596 1.75944532 11.05709596 1.875 13.1875 C1.91625 14.445625 1.9575 15.70375 2 17 C1.01 17.33 0.02 17.66 -1 18 C-0.505 9.09 -0.505 9.09 0 0 Z " fill="#F6B13D" transform="translate(63,25)"/>
<path d="M0 0 C0.99 0 1.98 0 3 0 C3.66 1.98 4.32 3.96 5 6 C5.99 5.67 6.98 5.34 8 5 C8 5.99 8 6.98 8 8 C3.56923077 10.09230769 3.56923077 10.09230769 0.6875 9.625 C0.130625 9.41875 -0.42625 9.2125 -1 9 C-0.34 9 0.32 9 1 9 C1 7.35 1 5.7 1 4 C0.34 4 -0.32 4 -1 4 C-0.67 2.68 -0.34 1.36 0 0 Z " fill="#B3690A" transform="translate(39,36)"/>
<path d="M0 0 C2.375 -0.1875 2.375 -0.1875 5 0 C5.66 0.99 6.32 1.98 7 3 C6.01 3 5.02 3 4 3 C4 6.3 4 9.6 4 13 C3.01 12.34 2.02 11.68 1 11 C0.48828125 8.3984375 0.48828125 8.3984375 0.3125 5.375 C0.24675781 4.37210938 0.18101563 3.36921875 0.11328125 2.3359375 C0.07589844 1.56507812 0.03851563 0.79421875 0 0 Z " fill="#903D00" transform="translate(58,22)"/>
<path d="M0 0 C1.65 0 3.3 0 5 0 C5 0.66 5 1.32 5 2 C6.65 2.33 8.3 2.66 10 3 C9.67 4.65 9.34 6.3 9 8 C8.34 7.67 7.68 7.34 7 7 C6.360625 6.855625 5.72125 6.71125 5.0625 6.5625 C3 6 3 6 0 4 C0 2.68 0 1.36 0 0 Z " fill="#01307F" transform="translate(95,104)"/>
<path d="M0 0 C0.33 0.99 0.66 1.98 1 3 C-1.97 3.66 -4.94 4.32 -8 5 C-8 5.66 -8 6.32 -8 7 C-9.32 7 -10.64 7 -12 7 C-11.67 5.35 -11.34 3.7 -11 2 C-7.17679443 0.57741188 -4.08718695 -0.24042276 0 0 Z " fill="#963F00" transform="translate(53,5)"/>
<path d="M0 0 C0.33 0 0.66 0 1 0 C1.33 2.64 1.66 5.28 2 8 C3.98 7.34 5.96 6.68 8 6 C8 6.99 8 7.98 8 9 C7.401875 9.2475 6.80375 9.495 6.1875 9.75 C3.71352479 11.16370012 2.56629745 12.65055383 1 15 C-1.36608078 9.67631825 -1.02816006 5.65488032 0 0 Z " fill="#873D02" transform="translate(73,36)"/>
<path d="M0 0 C0.66 0 1.32 0 2 0 C1.42558597 3.87729472 -0.29254639 6.21519058 -3 9 C-4.32 9 -5.64 9 -7 9 C-6.67 10.98 -6.34 12.96 -6 15 C-6.66 14.67 -7.32 14.34 -8 14 C-8.625 10.9375 -8.625 10.9375 -9 8 C-8.030625 7.38125 -7.06125 6.7625 -6.0625 6.125 C-2.97164638 4.34321154 -2.97164638 4.34321154 -2 2 C-1.34 2 -0.68 2 0 2 C0 1.34 0 0.68 0 0 Z " fill="#456379" transform="translate(80,100)"/>
<path d="M0 0 C1.2065625 0.0309375 1.2065625 0.0309375 2.4375 0.0625 C2.4375 1.7125 2.4375 3.3625 2.4375 5.0625 C1.7775 5.0625 1.1175 5.0625 0.4375 5.0625 C0.1075 7.3725 -0.2225 9.6825 -0.5625 12.0625 C-1.5525 12.0625 -2.5425 12.0625 -3.5625 12.0625 C-3.6875 9.1875 -3.6875 9.1875 -3.5625 6.0625 C-2.9025 5.4025 -2.2425 4.7425 -1.5625 4.0625 C-2.2225 3.0725 -2.8825 2.0825 -3.5625 1.0625 C-2.5625 0.0625 -2.5625 0.0625 0 0 Z " fill="#E89F2F" transform="translate(97.5625,33.9375)"/>
<path d="M0 0 C0.78375 0.04125 1.5675 0.0825 2.375 0.125 C2.705 1.445 3.035 2.765 3.375 4.125 C2.570625 4.41375 1.76625 4.7025 0.9375 5 C-1.7576468 5.85762568 -1.7576468 5.85762568 -2.625 8.125 C-3.615 7.795 -4.605 7.465 -5.625 7.125 C-4.53409091 0.21590909 -4.53409091 0.21590909 0 0 Z " fill="#973F00" transform="translate(107.625,2.875)"/>
<path d="M0 0 C3.3 0 6.6 0 10 0 C10 0.66 10 1.32 10 2 C8.35 2.66 6.7 3.32 5 4 C5 4.66 5 5.32 5 6 C3.68 6 2.36 6 1 6 C0.67 4.02 0.34 2.04 0 0 Z " fill="#80030B" transform="translate(55,98)"/>
<path d="M0 0 C1.32 0 2.64 0 4 0 C4 0.66 4 1.32 4 2 C4.66 2 5.32 2 6 2 C5.67 3.65 5.34 5.3 5 7 C2.03 6.505 2.03 6.505 -1 6 C-1.042721 4.33388095 -1.04063832 2.66617115 -1 1 C-0.67 0.67 -0.34 0.34 0 0 Z " fill="#F1C4C1" transform="translate(79,82)"/>
<path d="M0 0 C-0.33 0.33 -0.66 0.66 -1 1 C-1.36760731 3.32817964 -1.70241581 5.6618385 -2 8 C-1.34 8 -0.68 8 0 8 C0 8.66 0 9.32 0 10 C-2.375 9.5 -2.375 9.5 -5 8 C-6.08241903 5.33474712 -6.49272107 2.8592085 -7 0 C-3.98968256 -0.93423645 -3.13349732 -1.04449911 0 0 Z " fill="#A9561A" transform="translate(79,66)"/>
<path d="M0 0 C0 3.63 0 7.26 0 11 C-1.32 10.67 -2.64 10.34 -4 10 C-4.6875 6.6875 -4.6875 6.6875 -5 3 C-3.42599605 0.67647035 -2.82844233 0 0 0 Z " fill="#D58A1A" transform="translate(53,33)"/>
<path d="M0 0 C1.65 1.65 3.3 3.3 5 5 C0.69230769 8.93846154 0.69230769 8.93846154 -2.8125 9.25 C-3.534375 9.1675 -4.25625 9.085 -5 9 C-4.3566152 7.686298 -3.71021785 6.37407102 -3.0625 5.0625 C-2.70285156 4.33160156 -2.34320312 3.60070312 -1.97265625 2.84765625 C-1 1 -1 1 0 0 Z " fill="#D01548" transform="translate(30,88)"/>
<path d="M0 0 C1.98 0.99 1.98 0.99 4 2 C4 2.99 4 3.98 4 5 C5.98 4.01 7.96 3.02 10 2 C9.91621094 2.62648438 9.83242187 3.25296875 9.74609375 3.8984375 C9.64425781 4.71570313 9.54242188 5.53296875 9.4375 6.375 C9.33308594 7.18710938 9.22867188 7.99921875 9.12109375 8.8359375 C8.81762672 11.04899186 8.81762672 11.04899186 10 13 C9.01 13 8.02 13 7 13 C6.71125 12.195625 6.4225 11.39125 6.125 10.5625 C5.26737432 7.8673532 5.26737432 7.8673532 3 7 C3 6.01 3 5.02 3 4 C2.34 4 1.68 4 1 4 C0.67 2.68 0.34 1.36 0 0 Z " fill="#C77A63" transform="translate(66,75)"/>
<path d="M0 0 C0.66 0.33 1.32 0.66 2 1 C1.34 3.64 0.68 6.28 0 9 C-1.65 9 -3.3 9 -5 9 C-5.33 8.01 -5.66 7.02 -6 6 C-4 4 -2 2 0 0 Z " fill="#903D01" transform="translate(39,56)"/>
<path d="M0 0 C2.475 0.99 2.475 0.99 5 2 C5 6 5 6 3 9 C2.01 9 1.02 9 0 9 C0 6.03 0 3.06 0 0 Z " fill="#963F00" transform="translate(0,82)"/>
<path d="M0 0 C2.31 0.66 4.62 1.32 7 2 C6.67 4.31 6.34 6.62 6 9 C5.01 9 4.02 9 3 9 C2.01 6.03 1.02 3.06 0 0 Z " fill="#5C1814" transform="translate(43,103)"/>
<path d="M0 0 C1.65 0 3.3 0 5 0 C5 0.66 5 1.32 5 2 C4.34 2 3.68 2 3 2 C3 2.66 3 3.32 3 4 C2.34 4 1.68 4 1 4 C0.773125 4.61875 0.54625 5.2375 0.3125 5.875 C-1.37929835 8.61410209 -2.99244161 9.05024472 -6 10 C-5.67 9.01 -5.34 8.02 -5 7 C-4.34 6.67 -3.68 6.34 -3 6 C-1.95191959 4.02477154 -0.9479589 2.02518491 0 0 Z " fill="#6A9B19" transform="translate(77,98)"/>
<path d="M0 0 C-0.33 0.99 -0.66 1.98 -1 3 C-1.99 3 -2.98 3 -4 3 C-3.67 4.65 -3.34 6.3 -3 8 C-3.61875 7.79375 -4.2375 7.5875 -4.875 7.375 C-5.57625 7.25125 -6.2775 7.1275 -7 7 C-7.66 7.66 -8.32 8.32 -9 9 C-9 7.68 -9 6.36 -9 5 C-8.34 5 -7.68 5 -7 5 C-7 3.68 -7 2.36 -7 1 C-4.53721199 -0.231394 -2.7204945 -0.07159196 0 0 Z " fill="#98171C" transform="translate(48,95)"/>
<path d="M0 0 C6.75 0.75 6.75 0.75 9 3 C9 4.32 9 5.64 9 7 C5 7 5 7 2.25 4.625 C0 2 0 2 0 0 Z " fill="#C47443" transform="translate(64,64)"/>
<path d="M0 0 C2.31 0.33 4.62 0.66 7 1 C4 3 4 3 2 4 C1.26924352 6.3140622 0.59861742 8.64828869 0 11 C-0.99 11 -1.98 11 -3 11 C-3 10.34 -3 9.68 -3 9 C-3.66 8.67 -4.32 8.34 -5 8 C-3.625 6.5 -3.625 6.5 -2 5 C-1.34 5 -0.68 5 0 5 C0 3.35 0 1.7 0 0 Z " fill="#9B5006" transform="translate(100,34)"/>
<path d="M0 0 C0.99 0.33 1.98 0.66 3 1 C3 1.99 3 2.98 3 4 C3.99 4.33 4.98 4.66 6 5 C5.34 5 4.68 5 4 5 C4.45375 5.7425 4.9075 6.485 5.375 7.25 C6.68640796 9.46930578 7.88280803 11.67967822 9 14 C6.13302508 12.71480435 4.02392288 11.42870746 2 9 C2 8.34 2 7.68 2 7 C1.34 7 0.68 7 0 7 C0 4.69 0 2.38 0 0 Z " fill="#86400D" transform="translate(77,67)"/>
<path d="M0 0 C0 3.09404996 -0.57397356 5.2916989 -1.4375 8.25 C-2.6382212 12.51482578 -3.51122151 16.60099357 -4 21 C-4.33 21 -4.66 21 -5 21 C-5.22081501 14.32647966 -5.1949258 8.35373257 -3 2 C-2.01 1.34 -1.02 0.68 0 0 Z " fill="#A07F5A" transform="translate(46,55)"/>
<path d="M0 0 C2 1 4 2 6 3 C6 3.99 6 4.98 6 6 C4.8553125 6.2165625 4.8553125 6.2165625 3.6875 6.4375 C0.91827092 6.9632594 0.91827092 6.9632594 -2 8 C-1.125 1.125 -1.125 1.125 0 0 Z " fill="#E8A130" transform="translate(114,40)"/>
<path d="M0 0 C4.75 0.75 4.75 0.75 7 3 C6.625 5.125 6.625 5.125 6 7 C4.35 7 2.7 7 1 7 C1.99 6.67 2.98 6.34 4 6 C4 5.01 4 4.02 4 3 C2.68 3 1.36 3 0 3 C0 3.66 0 4.32 0 5 C-0.66 5 -1.32 5 -2 5 C-1.34 3.35 -0.68 1.7 0 0 Z " fill="#F4AE3B" transform="translate(104,36)"/>
<path d="M0 0 C2 3 2 3 3 5 C4.97888961 5.72693904 6.97954558 6.39816251 9 7 C8.67 7.66 8.34 8.32 8 9 C6.02 9 4.04 9 2 9 C2 8.34 2 7.68 2 7 C1.01 6.67 0.02 6.34 -1 6 C-0.67 4.02 -0.34 2.04 0 0 Z " fill="#248EC0" transform="translate(88,106)"/>
<path d="M0 0 C0.66 0 1.32 0 2 0 C2 3.63 2 7.26 2 11 C2.66 11 3.32 11 4 11 C4 11.66 4 12.32 4 13 C2.68 13.99 1.36 14.98 0 16 C0 10.72 0 5.44 0 0 Z " fill="#B1620E" transform="translate(65,99)"/>
<path d="M0 0 C0.99 0 1.98 0 3 0 C3 0.66 3 1.32 3 2 C3.99 2.33 4.98 2.66 6 3 C6.33 3.99 6.66 4.98 7 6 C7.66 6.33 8.32 6.66 9 7 C9 7.66 9 8.32 9 9 C7.68 8.67 6.36 8.34 5 8 C5 7.34 5 6.68 5 6 C4.01 6 3.02 6 2 6 C2 5.34 2 4.68 2 4 C1.34 4 0.68 4 0 4 C0 2.68 0 1.36 0 0 Z " fill="#74E969" transform="translate(49,98)"/>
<path d="M0 0 C2.64 0.66 5.28 1.32 8 2 C8 2.66 8 3.32 8 4 C9.32 4.33 10.64 4.66 12 5 C6.96488101 6.0070238 3.76052962 5.97387813 -1 4 C-0.67 2.68 -0.34 1.36 0 0 Z " fill="#8B2B10" transform="translate(53,114)"/>
<path d="M0 0 C1.98 0 3.96 0 6 0 C5.34 3.96 4.68 7.92 4 12 C3.34 12 2.68 12 2 12 C2 8.37 2 4.74 2 1 C1.34 0.67 0.68 0.34 0 0 Z " fill="#784F07" transform="translate(65,98)"/>
<path d="M0 0 C1.98 0.99 3.96 1.98 6 3 C6 4.32 6 5.64 6 7 C4.33388095 7.042721 2.66617115 7.04063832 1 7 C0 6 0 6 -0.0625 2.9375 C-0.041875 1.968125 -0.02125 0.99875 0 0 Z " fill="#9DEEFE" transform="translate(92,92)"/>
<path d="M0 0 C3 1 3 1 4 3 C6.52733235 3.65555119 6.52733235 3.65555119 9 4 C9 4.33 9 4.66 9 5 C2.73 5 -3.54 5 -10 5 C-10 4.67 -10 4.34 -10 4 C-6.7 4 -3.4 4 0 4 C0 2.68 0 1.36 0 0 Z " fill="#C46747" transform="translate(75,93)"/>
<path d="M0 0 C4.75 1.875 4.75 1.875 7 3 C6.67 4.65 6.34 6.3 6 8 C4.68 8.33 3.36 8.66 2 9 C1.34 6.03 0.68 3.06 0 0 Z " fill="#70ABE8" transform="translate(89,85)"/>
<path d="M0 0 C-0.83144531 0.39832031 -0.83144531 0.39832031 -1.6796875 0.8046875 C-2.76636719 1.33449219 -2.76636719 1.33449219 -3.875 1.875 C-4.59429687 2.22304687 -5.31359375 2.57109375 -6.0546875 2.9296875 C-8.15135019 3.96557543 -8.15135019 3.96557543 -10 6 C-10.99 5.67 -11.98 5.34 -13 5 C-12.5 3.125 -12.5 3.125 -11 1 C-7.08733883 -0.61407836 -4.0524829 -1.35082763 0 0 Z " fill="#8A3A13" transform="translate(56,85)"/>
<path d="M0 0 C0.33 1.32 0.66 2.64 1 4 C2.32 3.34 3.64 2.68 5 2 C5 2.99 5 3.98 5 5 C5.99 5 6.98 5 8 5 C8 5.99 8 6.98 8 8 C5.125 8.1875 5.125 8.1875 2 8 C-0.1519437 4.77208445 -0.20086443 3.71599191 0 0 Z " fill="#A8600A" transform="translate(12,41)"/>
<path d="M0 0 C2.475 0.495 2.475 0.495 5 1 C5 1.99 5 2.98 5 4 C6.32 4.66 7.64 5.32 9 6 C9 6.33 9 6.66 9 7 C5.64708882 7.37254569 4.3961577 7.31050198 1.6875 5.1875 C0 3 0 3 0 0 Z " fill="#F6CF6A" transform="translate(75,90)"/>
<path d="M0 0 C1.32 0 2.64 0 4 0 C4 2.97 4 5.94 4 9 C2.35 9 0.7 9 -1 9 C-0.01 7.35 0.98 5.7 2 4 C1.01 4 0.02 4 -1 4 C-0.67 2.68 -0.34 1.36 0 0 Z " fill="#F2AF3D" transform="translate(18,42)"/>
<path d="M0 0 C1.65 0.33 3.3 0.66 5 1 C4.34 2.98 3.68 4.96 3 7 C0.525 6.01 0.525 6.01 -2 5 C-1.34 3.35 -0.68 1.7 0 0 Z " fill="#6E0701" transform="translate(44,111)"/>
<path d="M0 0 C0.66 0 1.32 0 2 0 C2 0.99 2 1.98 2 3 C-1.3 3.66 -4.6 4.32 -8 5 C-8.99 3.68 -9.98 2.36 -11 1 C-10.28972656 1.01160156 -9.57945313 1.02320312 -8.84765625 1.03515625 C-7.92855469 1.04417969 -7.00945313 1.05320312 -6.0625 1.0625 C-4.68771484 1.07990234 -4.68771484 1.07990234 -3.28515625 1.09765625 C-1.03406673 1.25949049 -1.03406673 1.25949049 0 0 Z " fill="#9C4323" transform="translate(68,83)"/>
<path d="M0 0 C-0.04125 0.928125 -0.0825 1.85625 -0.125 2.8125 C-0.27136339 6.15809719 -0.27136339 6.15809719 2 9 C0.02 8.34 -1.96 7.68 -4 7 C-4 5.02 -4 3.04 -4 1 C-2 0 -2 0 0 0 Z " fill="#8F4815" transform="translate(69,56)"/>
<path d="M0 0 C1.65 0 3.3 0 5 0 C5 2.97 5 5.94 5 9 C4.34 8.67 3.68 8.34 3 8 C3 7.34 3 6.68 3 6 C2.34 6 1.68 6 1 6 C0.67 4.02 0.34 2.04 0 0 Z " fill="#B1754B" transform="translate(59,55)"/>
<path d="M0 0 C2.31361802 3.47042703 2.51020728 4.91834173 2 9 C-0.2206051 11.467339 -1.43569203 11.96152446 -4.75 12.1875 C-5.4925 12.125625 -6.235 12.06375 -7 12 C-4 10 -4 10 -1 9 C-1.020625 7.88625 -1.04125 6.7725 -1.0625 5.625 C-1 2 -1 2 0 0 Z " fill="#B96D07" transform="translate(22,42)"/>
<path d="M0 0 C2.375 0.25 2.375 0.25 5 1 C6.3125 3.0625 6.3125 3.0625 7 5 C4.69 5 2.38 5 0 5 C0 3.35 0 1.7 0 0 Z " fill="#7C3502" transform="translate(54,39)"/>
<path d="M0 0 C0.99 0 1.98 0 3 0 C2.34 3.63 1.68 7.26 1 11 C0.34 11 -0.32 11 -1 11 C-1.02688151 9.35425434 -1.04634123 7.70838587 -1.0625 6.0625 C-1.07410156 5.14597656 -1.08570312 4.22945312 -1.09765625 3.28515625 C-1 1 -1 1 0 0 Z " fill="#EEA93A" transform="translate(83,32)"/>
<path d="M0 0 C1.32 0 2.64 0 4 0 C4 2.31 4 4.62 4 7 C2.68 7 1.36 7 0 7 C0 4.69 0 2.38 0 0 Z " fill="#BED92C" transform="translate(61,90)"/>
<path d="M0 0 C2.64 0 5.28 0 8 0 C8 0.33 8 0.66 8 1 C6.35 1 4.7 1 3 1 C3.2784375 2.1446875 3.2784375 2.1446875 3.5625 3.3125 C4 6 4 6 3 9 C2.34 8.67 1.68 8.34 1 8 C1 7.01 1 6.02 1 5 C0.34 4.34 -0.32 3.68 -1 3 C-0.67 2.01 -0.34 1.02 0 0 Z " fill="#A3530A" transform="translate(32,33)"/>
<path d="M0 0 C0.99 0 1.98 0 3 0 C3 0.66 3 1.32 3 2 C3.66 2 4.32 2 5 2 C5.33 3.65 5.66 5.3 6 7 C4.35 6.67 2.7 6.34 1 6 C0.67 4.02 0.34 2.04 0 0 Z " fill="#AC3C2D" transform="translate(44,98)"/>
<path d="M0 0 C0.33 0.66 0.66 1.32 1 2 C1.66 2.33 2.32 2.66 3 3 C2.01 3.66 1.02 4.32 0 5 C0 6.32 0 7.64 0 9 C-0.99 9 -1.98 9 -3 9 C-3.33 8.34 -3.66 7.68 -4 7 C-5.65 7 -7.3 7 -9 7 C-8.67 6.34 -8.34 5.68 -8 5 C-7.030625 4.87625 -6.06125 4.7525 -5.0625 4.625 C-1.88417172 4.3508355 -1.88417172 4.3508355 -0.625 1.9375 C-0.41875 1.298125 -0.2125 0.65875 0 0 Z " fill="#D1846F" transform="translate(59,59)"/>
<path d="M0 0 C2.31 0 4.62 0 7 0 C6.34 2.31 5.68 4.62 5 7 C4.01 6.67 3.02 6.34 2 6 C0.8125 2.9375 0.8125 2.9375 0 0 Z " fill="#8E3B00" transform="translate(111,0)"/>
<path d="M0 0 C2.76223278 2.76223278 2.57856291 5.20706617 3 9 C1.68 8.67 0.36 8.34 -1 8 C-1.625 5.6875 -1.625 5.6875 -2 3 C-1.34 2.01 -0.68 1.02 0 0 Z " fill="#C0F3E5" transform="translate(88,92)"/>
<path d="M0 0 C2.00240521 2.25270587 2.94368221 3.60577544 3.375 6.625 C3.25125 7.40875 3.1275 8.1925 3 9 C2.01 9.66 1.02 10.32 0 11 C-1.28571429 3.57142857 -1.28571429 3.57142857 0 0 Z " fill="#D18315" transform="translate(68,25)"/>
<path d="M0 0 C0.33 0.66 0.66 1.32 1 2 C-1.64 2.33 -4.28 2.66 -7 3 C-6.67 2.34 -6.34 1.68 -6 1 C-2.9375 0.375 -2.9375 0.375 0 0 Z M-8 3 C-7.67 3.66 -7.34 4.32 -7 5 C-7.99 6.32 -8.98 7.64 -10 9 C-11.32 8.67 -12.64 8.34 -14 8 C-13.195625 7.731875 -12.39125 7.46375 -11.5625 7.1875 C-10.716875 6.795625 -9.87125 6.40375 -9 6 C-8.67 5.01 -8.34 4.02 -8 3 Z " fill="#B34E2E" transform="translate(58,86)"/>
<path d="M0 0 C1.32 1.32 2.64 2.64 4 4 C1 6 1 6 -1.1875 5.625 C-1.785625 5.41875 -2.38375 5.2125 -3 5 C-1.125 1.125 -1.125 1.125 0 0 Z " fill="#F9EDEA" transform="translate(65,66)"/>
<path d="M0 0 C3 0 3 0 4.6875 1.25 C6 3 6 3 6 7 C4.68 6.67 3.36 6.34 2 6 C2 5.01 2 4.02 2 3 C1.34 3 0.68 3 0 3 C0 2.01 0 1.02 0 0 Z " fill="#F73384" transform="translate(69,90)"/>
<path d="M0 0 C-0.99 0.33 -1.98 0.66 -3 1 C-3 1.99 -3 2.98 -3 4 C-3.99 3.67 -4.98 3.34 -6 3 C-6 2.34 -6 1.68 -6 1 C-7.98 1 -9.96 1 -12 1 C-12 0.67 -12 0.34 -12 0 C-7.66726186 -0.92844389 -4.33273814 -0.92844389 0 0 Z " fill="#D35A3E" transform="translate(78,89)"/>
<path d="M0 0 C1.32 0.66 2.64 1.32 4 2 C3.34 3.32 2.68 4.64 2 6 C0.68 5.67 -0.64 5.34 -2 5 C-1.125 1.125 -1.125 1.125 0 0 Z " fill="#F9EEEB" transform="translate(60,62)"/>
<path d="M0 0 C0 0.33 0 0.66 0 1 C-6.435 1.495 -6.435 1.495 -13 2 C-13 2.66 -13 3.32 -13 4 C-13.99 4 -14.98 4 -16 4 C-15.67 3.01 -15.34 2.02 -15 1 C-10.03926578 -0.32286246 -5.08888488 -0.08893197 0 0 Z " fill="#9D7752" transform="translate(69,46)"/>
<path d="M0 0 C1.2065625 0.0309375 1.2065625 0.0309375 2.4375 0.0625 C2.7675 1.7125 3.0975 3.3625 3.4375 5.0625 C2.1175 4.4025 0.7975 3.7425 -0.5625 3.0625 C-1.5525 4.0525 -2.5425 5.0425 -3.5625 6.0625 C-3.605221 4.39638095 -3.60313832 2.72867115 -3.5625 1.0625 C-2.5625 0.0625 -2.5625 0.0625 0 0 Z " fill="#F5B141" transform="translate(28.5625,35.9375)"/>
<path d="M0 0 C0.33 0 0.66 0 1 0 C1 1.65 1 3.3 1 5 C-0.98 5.33 -2.96 5.66 -5 6 C-5 4.68 -5 3.36 -5 2 C-3.35 2 -1.7 2 0 2 C0 1.34 0 0.68 0 0 Z " fill="#1777EE" transform="translate(94,103)"/>
<path d="M0 0 C0.93065133 2.60582371 1.14917407 3.64198224 0.0625 6.25 C-0.4634375 7.11625 -0.4634375 7.11625 -1 8 C-2.32 7.67 -3.64 7.34 -5 7 C-4.34 5.68 -3.68 4.36 -3 3 C-2.01 3 -1.02 3 0 3 C0 2.01 0 1.02 0 0 Z " fill="#C77E12" transform="translate(115,44)"/>
<path d="M0 0 C2.64 0 5.28 0 8 0 C8 0.99 8 1.98 8 3 C5.69 3.33 3.38 3.66 1 4 C0.67 2.68 0.34 1.36 0 0 Z " fill="#C37211" transform="translate(103,42)"/>
<path d="M0 0 C0.66 0 1.32 0 2 0 C2 1.98 2 3.96 2 6 C0.02 6 -1.96 6 -4 6 C-4 5.34 -4 4.68 -4 4 C-2.68 3.67 -1.36 3.34 0 3 C0 2.01 0 1.02 0 0 Z " fill="#D72541" transform="translate(54,91)"/>
<path d="M0 0 C0.66 0 1.32 0 2 0 C2.33 3.3 2.66 6.6 3 10 C2.01 10 1.02 10 0 10 C0 6.7 0 3.4 0 0 Z " fill="#864515" transform="translate(38,65)"/>
<path d="M0 0 C2.97 0.495 2.97 0.495 6 1 C6 2.32 6 3.64 6 5 C4.35 4.67 2.7 4.34 1 4 C0.67 2.68 0.34 1.36 0 0 Z " fill="#F36C92" transform="translate(31,88)"/>
<path d="M0 0 C0.99 0.33 1.98 0.66 3 1 C2.67 2.32 2.34 3.64 2 5 C0.35 4.67 -1.3 4.34 -3 4 C-2.01 2.68 -1.02 1.36 0 0 Z " fill="#F9E5E4" transform="translate(69,71)"/>
<path d="M0 0 C1.98 0.495 1.98 0.495 4 1 C3.67 1.66 3.34 2.32 3 3 C2.34 3 1.68 3 1 3 C1.33 5.31 1.66 7.62 2 10 C1.34 10 0.68 10 0 10 C-1.125 2.25 -1.125 2.25 0 0 Z " fill="#9C5C2D" transform="translate(64,54)"/>
<path d="M0 0 C2.31 0 4.62 0 7 0 C7 0.99 7 1.98 7 3 C4.69 3 2.38 3 0 3 C0 2.01 0 1.02 0 0 Z " fill="#7E3500" transform="translate(121,43)"/>
<path d="M0 0 C0.33 0.99 0.66 1.98 1 3 C0.401875 3.2475 -0.19625 3.495 -0.8125 3.75 C-3.28647521 5.16370012 -4.43370255 6.65055383 -6 9 C-6.375 6.75 -6.375 6.75 -6 4 C-3 1.6875 -3 1.6875 0 0 Z " fill="#7A3501" transform="translate(80,42)"/>
<path d="M0 0 C0.99 0.33 1.98 0.66 3 1 C2.34 1 1.68 1 1 1 C1 1.99 1 2.98 1 4 C1.99 4 2.98 4 4 4 C3.34 5.32 2.68 6.64 2 8 C1.34 7.67 0.68 7.34 0 7 C-0.6875 4 -0.6875 4 -1 1 C-0.67 0.67 -0.34 0.34 0 0 Z " fill="#EAA22A" transform="translate(43,35)"/>
<path d="M0 0 C2.5654594 2.5654594 2.54046087 4.47686668 3 8 C1.68 8 0.36 8 -1 8 C-0.67 5.36 -0.34 2.72 0 0 Z " fill="#84301F" transform="translate(50,105)"/>
<path d="M0 0 C1.32 0.33 2.64 0.66 4 1 C4 1.66 4 2.32 4 3 C2.824375 3.0928125 2.824375 3.0928125 1.625 3.1875 C0.75875 3.455625 -0.1075 3.72375 -1 4 C-2.37466625 6.47636012 -2.37466625 6.47636012 -3 9 C-3.33 8.34 -3.66 7.68 -4 7 C-3.22265625 5.2734375 -3.22265625 5.2734375 -2.0625 3.375 C-1.381875 2.26125 -0.70125 1.1475 0 0 Z " fill="#4DE773" transform="translate(87,100)"/>
<path d="M0 0 C-0.33 1.65 -0.66 3.3 -1 5 C-2.65 5 -4.3 5 -6 5 C-4.87312259 1.61936778 -3.78825335 0 0 0 Z " fill="#BA5833" transform="translate(73,84)"/>
<path d="M0 0 C1.65 0.33 3.3 0.66 5 1 C4.67 2.32 4.34 3.64 4 5 C2.35 5 0.7 5 -1 5 C-0.67 3.35 -0.34 1.7 0 0 Z " fill="#24384E" transform="translate(74,112)"/>
<path d="M0 0 C2.9375 0.75 2.9375 0.75 6 2 C7 4 7 4 7 6 C6.34 6.66 5.68 7.32 5 8 C4.54625 7.236875 4.0925 6.47375 3.625 5.6875 C2.46175508 3.76367186 1.2470585 1.87058776 0 0 Z " fill="#813904" transform="translate(81,74)"/>
<path d="M0 0 C0.66 0 1.32 0 2 0 C2.66 0.99 3.32 1.98 4 3 C4.99 3.33 5.98 3.66 7 4 C6.67 5.32 6.34 6.64 6 8 C5.67 7.34 5.34 6.68 5 6 C4.154375 5.525625 3.30875 5.05125 2.4375 4.5625 C1.633125 4.046875 0.82875 3.53125 0 3 C0 2.01 0 1.02 0 0 Z " fill="#9C531F" transform="translate(57,70)"/>
<path d="M0 0 C2.0625 0.4375 2.0625 0.4375 4 1 C3.67 2.65 3.34 4.3 3 6 C0.48916886 4.74458443 0.12874554 3.49936512 -1 1 C-0.67 0.67 -0.34 0.34 0 0 Z " fill="#16438A" transform="translate(101,106)"/>
<path d="M0 0 C0 1.65 0 3.3 0 5 C-1.32 5.33 -2.64 5.66 -4 6 C-4.33 5.01 -4.66 4.02 -5 3 C-1.125 0 -1.125 0 0 0 Z " fill="#21585F" transform="translate(80,107)"/>
<path d="M0 0 C1.32 0 2.64 0 4 0 C3.67 1.32 3.34 2.64 3 4 C1.68 4 0.36 4 -1 4 C-0.67 2.68 -0.34 1.36 0 0 Z " fill="#D7912B" transform="translate(84,26)"/>
<path d="M0 0 C2 3.75 2 3.75 2 6 C0.02 6.33 -1.96 6.66 -4 7 C-3.34 5.68 -2.68 4.36 -2 3 C-1.34 3 -0.68 3 0 3 C0 2.01 0 1.02 0 0 Z " fill="#136873" transform="translate(80,109)"/>
<path d="M0 0 C0.66 0.33 1.32 0.66 2 1 C0.9024777 3.99324263 0.32317108 4.84610901 -2.625 6.25 C-3.40875 6.4975 -4.1925 6.745 -5 7 C-4.67 6.01 -4.34 5.02 -4 4 C-1.9375 3.3125 -1.9375 3.3125 0 3 C0 2.01 0 1.02 0 0 Z " fill="#83A326" transform="translate(76,101)"/>
<path d="M0 0 C0 1.32 0 2.64 0 4 C-1.32 4 -2.64 4 -4 4 C-4 3.34 -4 2.68 -4 2 C-4.66 1.67 -5.32 1.34 -6 1 C-3 0 -3 0 0 0 Z " fill="#31A8DF" transform="translate(104,102)"/>
<path d="M0 0 C0.99 0 1.98 0 3 0 C3 1.65 3 3.3 3 5 C1.68 5 0.36 5 -1 5 C-0.67 3.35 -0.34 1.7 0 0 Z " fill="#093A76" transform="translate(91,100)"/>
<path d="M0 0 C0.99 0 1.98 0 3 0 C2.34 1.65 1.68 3.3 1 5 C0.01 4.67 -0.98 4.34 -2 4 C-1.34 2.68 -0.68 1.36 0 0 Z " fill="#F8E2E0" transform="translate(56,59)"/>
<path d="M0 0 C2.46800047 1.15173355 4.04783565 2.04783565 6 4 C3.69 4.33 1.38 4.66 -1 5 C-1 2 -1 2 0 0 Z " fill="#D98F17" transform="translate(15,48)"/>
<path d="M0 0 C-0.33 0.99 -0.66 1.98 -1 3 C-1 2.34 -1 1.68 -1 1 C-2.98 1.66 -4.96 2.32 -7 3 C-7 2.01 -7 1.02 -7 0 C-3.86650268 -1.04449911 -3.01031744 -0.93423645 0 0 Z " fill="#BB6D0E" transform="translate(35,43)"/>
<path d="M0 0 C0.66 0.33 1.32 0.66 2 1 C1.67 2.32 1.34 3.64 1 5 C-0.65 5.33 -2.3 5.66 -4 6 C-4 5.34 -4 4.68 -4 4 C-3.34 4 -2.68 4 -2 4 C-1.34 2.68 -0.68 1.36 0 0 Z " fill="#E39B2C" transform="translate(32,37)"/>
<path d="M0 0 C1.98 0 3.96 0 6 0 C3.33333333 2 0.66666667 4 -2 6 C-1.49396008 3.83125748 -1.00016187 2.00032373 0 0 Z " fill="#CC851D" transform="translate(93,33)"/>
</svg>
